<?xml version="1.0" encoding="UTF-8"?>
<svg version="1.1" xmlns="http://www.w3.org/2000/svg" width="1024" height="1024">
<path d="M0,0 L1024,0 L1024,1024 L0,1024 Z " fill="#F6F6F6" transform="translate(0,0)"/>
<path d="M0,0 L14,0 L30,3 L46,10 L59,19 L69,28 L77,39 L84,53 L95,79 L113,117 L127,148 L133,162 L138,168 L148,171 L207,181 L264,189 L266,189 L275,142 L280,136 L283,135 L295,135 L301,139 L305,145 L305,155 L297,195 L297,202 L303,211 L305,217 L305,233 L301,244 L292,254 L283,260 L275,262 L263,262 L225,256 L181,250 L130,243 L105,240 L95,236 L87,231 L77,222 L67,207 L53,180 L40,157 L26,131 L17,116 L13,113 L4,113 L0,117 L-1,119 L-1,127 L10,147 L25,172 L27,177 L17,202 L1,246 L0,249 L0,261 L4,267 L14,277 L21,285 L31,295 L38,303 L47,312 L54,320 L66,332 L73,340 L84,351 L91,359 L99,369 L106,383 L110,398 L116,441 L121,482 L129,536 L132,557 L132,575 L127,587 L119,595 L111,599 L102,601 L91,601 L80,597 L71,590 L65,580 L61,567 L52,518 L40,463 L35,442 L30,429 L24,421 L16,413 L2,402 L-14,389 L-30,377 L-46,364 L-59,354 L-77,340 L-95,326 L-104,319 L-111,313 L-119,303 L-128,288 L-134,273 L-136,265 L-136,241 L-133,226 L-124,197 L-109,154 L-95,117 L-82,84 L-68,49 L-60,35 L-53,26 L-46,19 L-32,10 L-15,3 Z " fill="#151515" transform="translate(491,284)"/>
<path d="M0,0 L4,2 L23,16 L42,30 L63,46 L81,59 L82,61 L76,70 L68,87 L57,112 L49,128 L40,139 L32,147 L25,155 L12,169 L5,177 L-7,191 L-22,207 L-29,215 L-44,231 L-56,244 L-68,257 L-79,266 L-88,270 L-92,271 L-103,271 L-115,267 L-123,261 L-130,253 L-134,240 L-134,227 L-130,215 L-123,204 L-112,191 L-102,178 L-91,165 L-82,154 L-73,143 L-61,129 L-52,118 L-40,104 L-31,93 L-24,82 L-19,63 L-11,35 L-2,7 Z " fill="#151415" transform="translate(358,613)"/>
<path d="M0,0 L23,0 L39,4 L55,12 L65,21 L70,26 L77,35 L84,49 L88,65 L89,69 L89,90 L86,104 L81,116 L74,127 L65,137 L53,146 L39,153 L24,157 L-3,157 L-18,153 L-32,146 L-42,138 L-51,129 L-58,118 L-63,108 L-67,93 L-68,84 L-68,68 L-64,51 L-56,35 L-48,25 L-41,18 L-27,9 L-16,4 Z " fill="#191919" transform="translate(574,119)"/>
<path d="M0,0 L7,0 L56,16 L97,29 L96,34 L82,70 L69,106 L60,135 L57,151 L56,159 L55,186 L47,188 L35,188 L17,184 L1,177 L-13,168 L-25,157 L-33,146 L-39,133 L-43,118 L-43,96 L-39,79 L-27,44 L-14,10 L-9,4 Z " fill="#151515" transform="translate(269,360)"/>
<path d="M0,0 L20,0 L38,4 L54,12 L65,20 L77,32 L84,42 L83,45 L71,52 L61,60 L53,68 L46,78 L36,96 L23,126 L13,151 L4,149 L-6,145 L-63,126 L-79,120 L-88,113 L-91,107 L-91,93 L-86,77 L-78,56 L-70,41 L-58,27 L-44,16 L-27,7 L-12,2 Z " fill="#151515" transform="translate(359,223)"/>
<path d="M0,0 L32,1 L28,25 L21,59 L14,97 L7,131 L1,162 L-6,198 L-13,234 L-19,267 L-24,291 L-28,311 L-32,318 L-37,322 L-42,324 L-51,323 L-57,318 L-59,314 L-59,302 L-41,209 L-26,132 L-18,92 L-12,60 L-4,20 Z " fill="#1C1B1B" transform="translate(740,561)"/>
<path d="M0,0 L1,0 L2,7 L0,7 L1,21 L5,26 L7,28 L3,27 L-1,22 L-2,20 L-2,8 Z M1,13 Z " fill="#0E0E0E" transform="translate(683,855)"/>
<path d="M0,0 L3,3 L1,7 L0,9 L-1,18 L-3,19 L-4,10 L-3,5 L-1,3 Z " fill="#232222" transform="translate(721,667)"/>
<path d="M0,0 L1,3 L-6,24 L-8,22 L-7,16 L-5,16 L-5,10 L-3,10 L-1,1 Z " fill="#EBEBEB" transform="translate(354,624)"/>
<path d="M0,0 L5,2 L15,11 L22,18 L19,18 L9,8 L0,1 Z " fill="#070708" transform="translate(414,237)"/>
<path d="M0,0 L2,1 L13,2 L12,5 L1,5 L0,3 L-3,1 Z " fill="#1E1E1E" transform="translate(254,879)"/>
<path d="M0,0 L6,4 L19,14 L16,15 L9,9 L6,8 L6,6 L3,6 L3,4 L1,4 Z " fill="#F0F0F0" transform="translate(418,627)"/>
<path d="M0,0 L7,6 L19,18 L20,21 L16,19 L9,11 L0,2 Z " fill="#0F0F0F" transform="translate(556,617)"/>
<path d="M0,0 L1,0 L0,14 L-3,19 L-5,20 L-1,1 Z " fill="#E1E2E1" transform="translate(663,208)"/>
<path d="M0,0 L3,0 L3,14 L1,16 L0,13 Z " fill="#1E1E1E" transform="translate(224,840)"/>
<path d="M0,0 L7,6 L17,16 L15,18 L6,8 L0,2 Z " fill="#0F0F10" transform="translate(504,562)"/>
<path d="M0,0 L3,0 L4,4 L1,9 L-1,14 L-2,10 Z " fill="#EAEBEA" transform="translate(743,708)"/>
<path d="M0,0 L14,3 L14,5 L16,5 L16,7 L5,4 L-1,2 Z " fill="#E9EAEA" transform="translate(348,382)"/>
<path d="M0,0 L9,2 L15,4 L15,7 L8,5 L3,3 L1,3 Z " fill="#EFEFF0" transform="translate(305,352)"/>
<path d="M0,0 L2,1 L1,6 L-2,9 L-4,9 L-6,15 L-7,12 L-1,1 Z " fill="#0C0C0C" transform="translate(289,265)"/>
<path d="M0,0 L2,1 L-4,8 L-9,13 L-9,10 Z M-12,12 L-10,13 L-13,13 Z " fill="#E9EAEA" transform="translate(300,858)"/>
<path d="M0,0 L1,0 L2,9 L-1,9 L-1,6 L-4,7 L-5,2 L-3,1 L-2,3 Z " fill="#252525" transform="translate(744,690)"/>
<path d="M0,0 L1,4 L-1,9 L-2,14 L-5,12 L-2,1 Z M-4,14 Z " fill="#1C1C1C" transform="translate(340,680)"/>
<path d="M0,0 L1,0 L1,7 L-1,10 L-2,15 L-5,15 L-2,5 Z " fill="#EDEDED" transform="translate(356,414)"/>
<path d="M0,0 L5,1 L4,6 L-7,2 L-7,1 Z " fill="#1C1C1B" transform="translate(360,366)"/>
<path d="M0,0 L3,0 L2,9 L-1,8 L-1,6 L-3,6 L-2,3 Z " fill="#1D1D1D" transform="translate(785,476)"/>
<path d="M0,0 L1,0 L1,15 L-2,15 L-3,8 L-2,4 L0,4 Z " fill="#242324" transform="translate(738,720)"/>
<path d="M0,0 L9,6 L12,8 L11,11 L-1,2 Z " fill="#F0F0F0" transform="translate(401,642)"/>
<path d="M0,0 L14,0 L14,3 L1,2 Z " fill="#1E1E1E" transform="translate(720,539)"/>
<path d="M0,0 L11,1 L12,4 L2,3 Z " fill="#EDEDED" transform="translate(644,454)"/>
<path d="M0,0 L1,0 L1,11 L-4,9 L-4,7 L-6,6 L-4,5 L-2,2 L-1,4 Z " fill="#232323" transform="translate(710,864)"/>
<path d="M0,0 L2,1 L2,9 L1,12 L-2,13 Z " fill="#E6E5E6" transform="translate(717,842)"/>
<path d="M0,0 L3,0 L6,14 L3,12 L2,3 L0,3 Z " fill="#E9E9E9" transform="translate(525,729)"/>
<path d="M0,0 L7,5 L10,11 L10,13 L8,13 L0,2 Z " fill="#EFF0EF" transform="translate(582,642)"/>
<path d="M0,0 L3,0 L2,11 L-1,11 Z " fill="#1B1B1B" transform="translate(356,518)"/>
<path d="M0,0 L3,1 L4,12 L1,10 Z " fill="#ECECEC" transform="translate(617,803)"/>
<path d="M0,0 L1,2 L-1,4 Z M-10,2 L-1,4 L-2,6 L-10,5 Z M-7,4 Z " fill="#F0F0F1" transform="translate(373,370)"/>
<path d="M0,0 L2,2 L1,13 L-1,16 L-2,9 L0,9 Z " fill="#080909" transform="translate(661,202)"/>
<path d="M0,0 L4,2 L10,6 L12,10 L3,4 L0,2 Z " fill="#EAEAEA" transform="translate(370,620)"/>
<path d="M0,0 L3,4 L5,10 L2,10 L-1,4 Z " fill="#1D1D1D" transform="translate(363,566)"/>
<path d="M0,0 L2,3 L-1,12 L-2,12 L-2,5 Z " fill="#0F0F10" transform="translate(731,612)"/>
<path d="M0,0 L2,0 L1,7 L4,9 L4,12 L2,12 L-1,8 L-1,1 Z " fill="#F0F0F0" transform="translate(788,478)"/>
<path d="M0,0 L5,1 L5,3 L11,3 L9,6 L0,3 Z " fill="#EAEAEA" transform="translate(289,362)"/>
<path d="M0,0 L1,0 L1,5 L-3,13 L-4,9 Z " fill="#0D0D0D" transform="translate(251,382)"/>
<path d="M0,0 L2,0 L2,3 L-7,5 L-7,2 Z " fill="#EEEFEE" transform="translate(563,119)"/>
<path d="M0,0 L3,3 L4,10 L1,11 L1,6 L0,5 Z " fill="#ECECEC" transform="translate(222,850)"/>
<path d="M0,0 L1,0 L1,11 L-2,13 L-1,2 Z " fill="#121213" transform="translate(708,727)"/>
<path d="M0,0 L9,2 L9,5 L1,3 Z " fill="#E9EAEA" transform="translate(275,358)"/>
<path d="M0,0 L5,1 L4,5 L2,5 L1,7 L-1,7 Z " fill="#202020" transform="translate(510,214)"/>
<path d="M0,0 L1,2 L-3,8 L-5,4 L-3,1 Z " fill="#EDEEEE" transform="translate(235,815)"/>
<path d="M0,0 L2,0 L4,11 L1,8 L-1,1 Z " fill="#E7E7E7" transform="translate(537,779)"/>
<path d="M0,0 L2,2 L2,13 L1,13 L1,8 L-1,8 Z " fill="#0D0C0D" transform="translate(602,701)"/>
<path d="M0,0 L2,4 L4,5 L1,9 L-1,9 Z " fill="#E9E9EA" transform="translate(762,610)"/>
<path d="M0,0 L7,6 L9,8 L8,11 L0,2 Z " fill="#EFEFEF" transform="translate(499,554)"/>
<path d="M0,0 L2,1 L1,8 L-1,12 L-2,7 L0,2 Z " fill="#F0F0F0" transform="translate(359,498)"/>
<path d="M0,0 L6,2 L8,3 L8,5 L-1,3 Z " fill="#EBEBEB" transform="translate(604,118)"/>
<path d="M0,0 L1,0 L2,10 L-1,11 L-1,3 Z " fill="#222222" transform="translate(615,793)"/>
<path d="M0,0 L1,0 L0,12 L-1,12 L-2,1 Z " fill="#252425" transform="translate(602,695)"/>
<path d="M0,0 L4,0 L4,2 L9,3 L10,5 L-1,2 Z " fill="#E3E3E3" transform="translate(308,369)"/>
<path d="M0,0 L3,0 L2,7 L-1,7 Z " fill="#EFEFEF" transform="translate(753,658)"/>
<path d="M0,0 L6,2 L8,7 L0,2 Z " fill="#EEEFEF" transform="translate(417,655)"/>
<path d="M0,0 L7,0 L7,3 L1,3 Z " fill="#202020" transform="translate(706,536)"/>
<path d="M0,0 L1,2 L-1,10 L-4,10 L-1,1 Z " fill="#E8E9E9" transform="translate(366,391)"/>
<path d="M0,0 L5,2 L10,7 L6,6 L0,1 Z " fill="#0E0E0E" transform="translate(414,237)"/>
<path d="M0,0 L2,1 L0,7 L-3,9 Z " fill="#EBEBEA" transform="translate(661,219)"/>
<path d="M0,0 L5,0 L5,2 L7,3 L-1,3 Z " fill="#222222" transform="translate(574,119)"/>
<path d="M0,0 L2,3 L-5,7 L-6,5 Z " fill="#ECECEC" transform="translate(286,872)"/>
<path d="M0,0 L1,4 L7,6 L6,8 L2,7 L-1,2 Z " fill="#1C1C1D" transform="translate(562,869)"/>
<path d="M0,0 L2,1 L1,8 L-2,7 Z " fill="#232323" transform="translate(341,671)"/>
<path d="M0,0 L11,1 L11,2 L-1,3 Z " fill="#222322" transform="translate(748,542)"/>
<path d="M0,0 L5,0 L6,3 L0,3 L-2,1 Z " fill="#1C1C1C" transform="translate(627,525)"/>
<path d="M0,0 L2,4 L0,9 L-3,10 Z " fill="#EEEEEE" transform="translate(513,470)"/>
<path d="M0,0 L2,0 L6,8 L3,8 L0,2 Z " fill="#EAEBEB" transform="translate(588,368)"/>
<path d="M0,0 L4,2 L0,5 L-2,5 Z " fill="#222222" transform="translate(385,760)"/>
<path d="M0,0 L2,2 L-1,9 L-2,5 Z " fill="#EEEEEE" transform="translate(427,697)"/>
<path d="M0,0 L3,1 L4,4 L0,6 L-1,4 Z " fill="#1C1D1C" transform="translate(435,672)"/>
<path d="M0,0 L1,4 L0,9 L-2,5 L-2,1 Z " fill="#EFEFEF" transform="translate(736,577)"/>
<path d="M0,0 L2,4 L0,7 L-2,7 L-3,4 L-1,4 Z " fill="#1B1C1C" transform="translate(511,469)"/>
<path d="M0,0 L4,1 L3,3 L-3,5 L-2,1 Z " fill="#E6E5E5" transform="translate(266,358)"/>
<path d="M0,0 L5,1 L7,3 L3,4 L-1,1 Z " fill="#1F1F20" transform="translate(548,266)"/>
</svg>
