<?xml version="1.0" encoding="UTF-8"?>
<svg version="1.1" xmlns="http://www.w3.org/2000/svg" width="1024" height="1024">
<path d="M0,0 L1024,0 L1024,1024 L0,1024 Z " fill="#FDFDFD" transform="translate(0,0)"/>
<path d="M0,0 L14,0 L22,4 L26,9 L34,25 L43,41 L54,58 L58,61 L86,69 L94,53 L99,52 L101,54 L101,75 L103,78 L103,86 L99,92 L91,96 L79,96 L51,89 L32,85 L26,81 L21,75 L10,48 L7,40 L4,48 L5,55 L10,67 L9,74 L2,96 L4,100 L35,131 L38,136 L41,150 L46,191 L46,205 L43,211 L38,215 L36,216 L26,216 L21,212 L17,203 L12,175 L7,157 L1,148 L-16,135 L-33,122 L-43,114 L-47,108 L-48,105 L-48,91 L-36,60 L-18,14 L-11,6 L-3,1 Z " fill="#0B0B0B" transform="translate(160,432)"/>
<path d="M0,0 L24,0 L24,129 L2,129 L1,120 L-6,126 L-17,130 L-36,130 L-45,127 L-53,121 L-59,114 L-63,106 L-66,97 L-67,90 L-67,74 L-64,60 L-59,50 L-52,42 L-42,36 L-35,34 L-19,34 L-7,39 L-1,45 Z " fill="#0B0C0B" transform="translate(809,432)"/>
<path d="M0,0 L23,0 L30,10 L45,34 L61,59 L75,81 L77,82 L77,0 L101,0 L101,128 L77,128 L65,109 L54,92 L42,73 L31,56 L26,49 L26,47 L24,47 L24,128 L0,128 Z " fill="#0B0B0B" transform="translate(279,433)"/>
<path d="M0,0 L13,0 L23,4 L31,12 L34,16 L43,6 L53,1 L57,0 L69,0 L79,3 L87,8 L93,16 L96,27 L96,95 L73,95 L72,37 L70,28 L68,24 L61,21 L53,21 L45,25 L41,31 L39,37 L38,95 L15,95 L14,34 L10,24 L6,22 L-7,22 L-13,25 L-17,31 L-19,37 L-20,95 L-44,95 L-44,3 L-21,3 L-20,12 L-12,5 L-4,1 Z " fill="#0A0A0A" transform="translate(538,466)"/>
<path d="M0,0 L15,0 L26,3 L36,8 L46,18 L52,30 L54,39 L54,58 L52,67 L46,79 L36,89 L23,95 L19,96 L-1,96 L-13,92 L-22,86 L-29,79 L-35,67 L-37,59 L-37,36 L-33,25 L-27,15 L-18,7 L-7,2 Z " fill="#0B0B0B" transform="translate(430,467)"/>
<path d="M0,0 L20,0 L32,3 L41,9 L46,16 L49,28 L50,75 L60,75 L60,92 L50,96 L40,96 L32,93 L27,87 L27,84 L19,90 L7,95 L-15,95 L-24,91 L-29,87 L-33,80 L-34,76 L-34,62 L-31,54 L-25,47 L-15,42 L3,38 L23,36 L25,35 L25,27 L22,22 L16,20 L3,20 L-4,23 L-7,28 L-8,32 L-30,32 L-30,23 L-26,13 L-18,6 L-9,2 Z " fill="#0B0B0B" transform="translate(679,467)"/>
<path d="M0,0 L25,0 L29,10 L42,47 L46,59 L49,51 L64,4 L65,0 L91,0 L88,10 L65,74 L54,104 L48,115 L39,123 L27,127 L11,127 L7,126 L7,107 L22,106 L27,103 L30,99 L32,92 L31,85 L10,29 L0,2 Z " fill="#0B0B0B" transform="translate(881,469)"/>
<path d="M0,0 L5,2 L27,15 L28,19 L21,44 L12,54 L1,65 L-7,72 L-17,83 L-24,91 L-29,93 L-38,92 L-44,88 L-47,83 L-47,75 L-40,64 L-26,49 L-19,41 L-12,34 L-8,26 Z " fill="#0B0B0B" transform="translate(112,556)"/>
<path d="M0,0 L23,0 L23,129 L0,129 Z " fill="#0A0A0A" transform="translate(849,432)"/>
<path d="M0,0 L12,0 L21,4 L28,11 L33,21 L34,24 L34,41 L30,49 L22,56 L15,58 L2,58 L-8,54 L-16,47 L-20,39 L-21,36 L-21,21 L-16,11 L-9,4 Z " fill="#0B0B0B" transform="translate(192,374)"/>
<path d="M0,0 L9,2 L39,12 L28,41 L22,57 L21,67 L17,68 L7,68 L-3,64 L-9,57 L-12,50 L-12,34 L-4,10 Z " fill="#0B0B0B" transform="translate(80,462)"/>
<path d="M0,0 L14,0 L22,4 L27,10 L30,19 L30,38 L26,49 L19,55 L17,56 L3,56 L-7,51 L-11,46 L-14,39 L-15,34 L-15,18 L-11,8 L-6,3 Z " fill="#FCFCFC" transform="translate(431,487)"/>
<path d="M0,0 L14,0 L20,3 L27,11 L30,21 L30,31 L27,43 L22,51 L14,55 L1,55 L-7,51 L-13,43 L-15,37 L-15,18 L-11,9 L-5,2 Z " fill="#FCFCFC" transform="translate(781,486)"/>
<path d="M0,0 L12,0 L24,4 L35,12 L34,15 L25,22 L19,30 L10,53 L7,54 L-27,41 L-28,38 L-18,15 L-12,7 L-7,3 Z " fill="#0B0B0B" transform="translate(113,411)"/>
<path d="M0,0 L14,1 L13,12 L9,36 L3,69 L-5,108 L-8,112 L-14,112 L-16,110 L-16,98 L-7,41 L-1,3 Z " fill="#0C0C0C" transform="translate(241,536)"/>
<path d="M0,0 L12,0 L12,10 L9,18 L3,23 L-6,26 L-14,26 L-22,22 L-25,17 L-25,11 L-21,5 L-14,2 Z " fill="#F9F9F9" transform="translate(693,519)"/>
<path d="M0,0 L1,0 L1,91 L2,90 L2,2 L19,2 L19,3 L3,3 L3,89 L21,89 L21,37 L24,37 L24,92 L0,92 Z " fill="#282829" transform="translate(494,469)"/>
<path d="M0,0 L2,1 L2,69 L-21,69 L-21,10 L-20,10 L-19,18 L-19,66 L-1,66 L-1,1 Z " fill="#131313" transform="translate(632,492)"/>
<path d="M0,0 L1,0 L1,59 L-22,59 L-22,11 L-20,10 L-20,57 L-1,56 L-1,5 Z " fill="#020202" transform="translate(575,502)"/>
<path d="M0,0 L24,0 L23,4 L2,3 L2,19 L1,19 Z " fill="#151515" transform="translate(356,433)"/>
<path d="M0,0 L1,3 L1,23 L-1,24 L-2,21 L-2,5 Z " fill="#161616" transform="translate(744,501)"/>
<path d="M0,0 L11,1 L11,2 L2,2 L2,18 L8,18 L8,19 L0,19 Z " fill="#020202" transform="translate(888,576)"/>
<path d="M0,0 L10,0 L9,11 L7,14 L8,2 L0,2 Z M6,14 Z " fill="#030303" transform="translate(245,537)"/>
<path d="M0,0 L4,1 L5,2 L5,21 L4,21 L3,3 L-3,3 Z " fill="#333332" transform="translate(256,484)"/>
<path d="M0,0 L7,0 L12,2 L12,3 L-4,3 Z " fill="#171617" transform="translate(435,484)"/>
<path d="M0,0 L2,3 L3,16 L0,14 L-1,1 Z " fill="#151515" transform="translate(198,572)"/>
<path d="M0,0 L13,0 L13,1 L5,2 L1,3 L-4,4 L-4,1 Z " fill="#1E1E1D" transform="translate(538,466)"/>
<path d="M0,0 L9,3 L13,7 L9,7 L9,5 L0,3 Z " fill="#131313" transform="translate(706,469)"/>
<path d="M0,0 L6,1 L7,4 L3,3 L-1,7 L-2,5 Z " fill="#161616" transform="translate(80,462)"/>
<path d="M0,0 L2,1 L2,3 L-14,3 L-14,2 Z " fill="#060606" transform="translate(870,558)"/>
<path d="M0,0 L2,1 L1,11 L-2,11 L-1,3 Z " fill="#151515" transform="translate(395,496)"/>
<path d="M0,0 L2,3 L4,12 L2,13 L0,7 L-1,1 Z " fill="#111111" transform="translate(906,470)"/>
<path d="M0,0 L4,4 L7,11 L4,10 L4,8 L2,8 L0,3 Z " fill="#171717" transform="translate(474,484)"/>
<path d="M0,0 L1,4 L-2,11 L-3,11 L-2,1 Z " fill="#151615" transform="translate(228,628)"/>
<path d="M0,0 L1,2 L-3,8 L-6,7 Z " fill="#050505" transform="translate(181,380)"/>
<path d="M0,0 L2,0 L3,4 L-2,8 Z " fill="#161515" transform="translate(112,556)"/>
<path d="M0,0 L2,2 L0,2 L0,9 L-3,9 Z " fill="#161616" transform="translate(933,513)"/>
<path d="M0,0 L2,1 L-1,9 L-3,7 L-1,1 Z " fill="#141414" transform="translate(128,445)"/>
</svg>
