<?xml version="1.0" encoding="UTF-8"?>
<svg version="1.1" xmlns="http://www.w3.org/2000/svg" width="500" height="500">
<path d="M0,0 L11,0 L17,4 L21,11 L24,21 L28,29 L29,30 L47,33 L48,27 L50,25 L55,26 L55,33 L54,37 L55,43 L51,49 L46,73 L41,100 L38,106 L34,106 L32,102 L36,81 L41,54 L43,47 L34,46 L21,44 L16,41 L10,32 L5,23 L4,26 L7,31 L5,40 L4,48 L12,55 L12,57 L14,57 L14,59 L16,59 L16,61 L20,63 L22,68 L24,93 L25,103 L21,106 L13,105 L10,97 L7,78 L4,73 L-7,66 L-7,64 L-12,62 L-15,60 L-15,58 L-17,58 L-17,56 L-19,56 L-21,52 L-21,40 L-17,28 L-12,16 L-8,7 L-4,2 Z " fill="#E3E3E3" transform="translate(76,211)"/>
<path d="M0,0 L15,0 L23,14 L33,31 L33,34 L35,34 L36,37 L37,0 L50,0 L51,2 L51,61 L50,63 L37,63 L26,45 L18,32 L14,25 L13,63 L0,63 Z " fill="#DEDDDD" transform="translate(135,212)"/>
<path d="M0,0 L7,0 L15,4 L17,6 L22,2 L27,0 L35,0 L42,3 L46,7 L48,12 L48,48 L36,48 L35,47 L34,17 L32,14 L27,13 L22,16 L21,18 L20,48 L7,48 L6,43 L6,18 L4,14 L-1,13 L-6,16 L-7,18 L-8,48 L-21,48 L-21,2 L-9,2 L-9,4 Z " fill="#DCDBDC" transform="translate(262,227)"/>
<path d="M0,0 L13,0 L13,64 L2,64 L0,61 L-7,65 L-18,65 L-22,64 L-22,62 L-26,61 L-30,56 L-33,50 L-34,46 L-34,34 L-31,26 L-30,24 L-28,24 L-28,22 L-26,22 L-26,20 L-18,16 L-7,16 L-1,19 Z M-12,27 L-18,30 L-21,35 L-21,45 L-18,50 L-14,53 L-6,53 L-1,48 L0,47 L0,36 L-4,30 L-6,28 Z " fill="#E1E1E1" transform="translate(395,211)"/>
<path d="M0,0 L13,0 L21,4 L21,6 L23,6 L25,9 L26,17 L26,40 L29,40 L30,49 L29,50 L21,50 L16,48 L15,46 L10,48 L4,50 L-6,49 L-11,46 L-16,40 L-17,38 L-17,30 L-11,23 L-7,21 L9,18 L13,17 L11,12 L4,11 L-1,13 L-3,16 L-11,17 L-15,15 L-11,6 L-6,2 Z M9,27 L-1,29 L-4,31 L-4,37 L-1,39 L5,39 L11,35 L13,33 L13,27 Z " fill="#E1E0E0" transform="translate(330,227)"/>
<path d="M0,0 L8,0 L16,3 L24,10 L27,19 L27,32 L24,40 L22,40 L20,44 L18,44 L18,46 L10,49 L-3,49 L-13,44 L-18,36 L-20,28 L-19,19 L-17,12 L-15,8 L-13,8 L-13,6 L-7,2 Z M0,12 L-5,17 L-6,19 L-6,31 L-3,36 L2,38 L9,37 L13,32 L14,22 L12,16 L7,12 Z " fill="#DBDADA" transform="translate(210,227)"/>
<path d="M0,0 L13,0 L17,9 L22,25 L24,25 L30,4 L32,0 L45,0 L42,12 L35,32 L29,50 L23,59 L17,63 L14,64 L7,64 L4,63 L4,53 L13,51 L15,44 L9,27 L2,9 Z " fill="#DBDADB" transform="translate(430,229)"/>
<path d="M0,0 L12,0 L13,2 L13,61 L12,63 L-1,63 L-9,50 L-9,47 L-6,44 L-7,38 L-1,40 Z " fill="#E9E8E8" transform="translate(173,212)"/>
<path d="M0,0 L5,1 L5,8 L4,12 L5,18 L1,24 L-4,48 L-9,75 L-12,81 L-16,81 L-18,77 L-14,56 L-9,29 L-7,22 L-16,21 L-29,19 L-25,18 L-25,16 L-21,15 L-20,12 L-18,12 L-17,7 L-19,6 L-9,7 L-3,8 L-2,2 Z " fill="#DFDEDF" transform="translate(126,236)"/>
<path d="M0,0 L13,0 L13,63 L12,64 L0,64 Z " fill="#E0E0E0" transform="translate(414,211)"/>
<path d="M0,0 L4,1 L6,2 L6,4 L8,4 L8,6 L13,8 L16,11 L14,20 L12,23 L10,23 L10,25 L8,25 L8,27 L6,27 L6,29 L4,29 L2,33 L-12,47 L-18,47 L-23,44 L-24,40 L-19,33 L-17,33 L-17,31 L-15,31 L-15,29 L-13,29 L-13,27 L-11,27 L-9,23 L-7,23 L-5,19 L-2,14 L-1,1 Z " fill="#E3E2E2" transform="translate(54,270)"/>
<path d="M0,0 L8,2 L8,4 L12,6 L12,8 L14,8 L15,12 L15,19 L11,26 L8,27 L8,29 L4,30 L-4,30 L-9,28 L-14,22 L-15,20 L-15,11 L-11,5 L-8,2 Z " fill="#E0E0E0" transform="translate(97,182)"/>
<path d="M0,0 L4,1 L17,6 L19,8 L17,17 L13,30 L12,36 L2,34 L0,33 L0,31 L-2,31 L-2,29 L-4,29 L-6,25 L-6,15 Z " fill="#E5E4E4" transform="translate(39,225)"/>
<path d="M0,0 L3,1 L9,6 L11,12 L11,25 L8,33 L6,33 L4,37 L2,37 L2,39 L-6,42 L-15,42 L-18,35 L-18,31 L-10,31 L-5,29 L-3,21 L-4,7 L0,2 Z " fill="#DFDFDF" transform="translate(226,234)"/>
<path d="M0,0 L10,1 L16,6 L16,9 L11,11 L11,13 L9,13 L7,17 L3,27 L2,28 L-5,27 L-17,22 L-16,15 L-13,8 L-8,3 L-5,1 Z " fill="#DEDDDD" transform="translate(58,200)"/>
<path d="M0,0 L6,0 L8,5 L7,7 L11,7 L11,13 L10,13 L10,8 L-4,11 L-7,12 L-6,18 L-4,19 L2,19 L6,18 L7,22 L12,24 L12,26 L4,30 L-5,31 L-13,28 L-19,21 L-20,19 L-20,11 L-14,4 L-10,2 Z " fill="#D9D9D9" transform="translate(333,246)"/>
<path d="M0,0 L10,0 L12,8 L11,44 L0,44 Z " fill="#F0EFEF" transform="translate(242,230)"/>
<path d="M0,0 L2,3 L4,0 L7,0 L6,11 L-1,48 L-4,54 L-8,54 L-10,50 L-6,29 L-1,2 Z " fill="#CDCBC9" transform="translate(118,263)"/>
<path d="M0,0 L13,0 L13,1 L5,2 L5,7 L8,8 L9,6 L11,8 L11,10 L0,12 L-3,16 L-11,17 L-15,15 L-11,6 L-6,2 Z " fill="#D5D5D5" transform="translate(330,227)"/>
<path d="M0,0 L2,1 L3,4 L8,6 L8,8 L0,12 L-9,13 L-17,10 L-18,8 L-13,8 L-13,4 L-9,3 L-8,1 L-2,1 Z M-11,5 L-10,7 Z " fill="#CFCECE" transform="translate(337,264)"/>
<path d="M0,0 L8,0 L16,3 L24,10 L23,12 L17,8 L14,13 L11,16 L7,13 L0,13 L-2,14 L-1,10 L4,9 L3,5 L5,2 L0,1 Z " fill="#D3D1D2" transform="translate(210,227)"/>
<path d="M0,0 L4,1 L4,4 L2,4 L1,7 L2,8 L3,8 L2,22 L-1,28 L-5,28 L-7,24 L-3,3 L-1,3 Z " fill="#D6D5D4" transform="translate(115,289)"/>
<path d="M0,0 L5,3 L6,9 L3,12 L-1,13 L-10,13 L-13,6 L-13,2 L-5,2 Z " fill="#EAEAE9" transform="translate(221,263)"/>
<path d="M0,0 L12,0 L12,2 L16,1 L16,3 L11,5 L11,1 L1,1 L1,45 L12,45 L12,16 L13,16 L13,46 L0,46 Z " fill="#898888" transform="translate(241,229)"/>
<path d="M0,0 L2,3 L4,0 L7,0 L6,11 L5,17 L4,17 L4,10 L5,7 L0,6 L-1,8 L-1,2 Z " fill="#B3B2B2" transform="translate(118,263)"/>
<path d="M0,0 L1,0 L1,6 L4,6 L4,10 L6,8 L5,13 L1,15 L-2,12 Z " fill="#C5C3C3" transform="translate(110,303)"/>
<path d="M0,0 L2,0 L1,9 L-4,10 L-3,14 L-6,13 L-7,9 L-2,2 L0,2 Z " fill="#C4C4C4" transform="translate(37,301)"/>
<path d="M0,0 L6,0 L6,3 L8,4 L7,8 L0,8 L-1,2 Z M4,4 L5,6 L6,4 Z " fill="#F1EFF0" transform="translate(435,283)"/>
<path d="M0,0 L5,1 L5,8 L1,6 L-2,6 L-2,9 L-7,9 L-3,8 L-2,2 Z " fill="#9F9E9E" transform="translate(126,236)"/>
<path d="M0,0 L3,1 L4,5 L6,5 L5,1 L8,1 L10,5 L6,9 L2,5 Z " fill="#C7C6C6" transform="translate(158,251)"/>
<path d="M0,0 L5,1 L4,6 L1,9 L-2,8 Z " fill="#F1EFEE" transform="translate(118,269)"/>
<path d="M0,0 L1,4 L-5,10 L-8,10 L-9,14 L-11,13 L-11,11 L-9,11 L-9,9 L-7,9 L-5,5 L-3,5 L-1,1 Z " fill="#ACA7AB" transform="translate(50,288)"/>
<path d="M0,0 L4,1 L4,4 L2,4 L1,7 L2,8 L3,11 L-2,10 L-2,3 Z " fill="#F4F1F0" transform="translate(115,289)"/>
<path d="M0,0 L4,1 L8,6 L7,9 L3,9 L1,8 L3,5 L3,2 L0,2 Z " fill="#BABABA" transform="translate(88,213)"/>
<path d="M0,0 L5,0 L5,4 L2,4 L0,8 L-1,8 L-1,2 Z " fill="#F2EFEE" transform="translate(120,259)"/>
<path d="M0,0 L3,0 L3,5 L-1,6 L-5,4 L-3,4 L-3,1 Z " fill="#E7E5E6" transform="translate(127,241)"/>
<path d="M0,0 L1,4 L-3,7 L-11,6 L-7,4 L-2,3 L-2,1 Z " fill="#B1AFB0" transform="translate(100,310)"/>
<path d="M0,0 L14,0 L12,6 L11,2 L6,2 L5,4 L5,1 L0,1 Z " fill="#858080" transform="translate(114,257)"/>
<path d="M0,0 L3,1 L3,3 L5,3 L3,8 L1,8 L0,6 Z M-2,6 L0,7 Z " fill="#D4D2D3" transform="translate(57,271)"/>
<path d="M0,0 L3,2 L4,8 L0,7 L-2,1 Z M2,5 L3,7 Z " fill="#CCCACB" transform="translate(369,265)"/>
<path d="M0,0 L1,3 L-2,13 L-3,13 L-4,7 L-3,6 L-3,3 L0,2 Z " fill="#A7A4A6" transform="translate(54,242)"/>
<path d="M0,0 L3,1 L4,5 L-2,8 Z " fill="#F1F1F1" transform="translate(460,238)"/>
<path d="M0,0 L3,1 L4,4 L4,11 L2,7 L-1,3 Z " fill="#CCCBCC" transform="translate(442,231)"/>
<path d="M0,0 L7,0 L4,5 L1,6 Z " fill="#EFEEEF" transform="translate(209,228)"/>
<path d="M0,0 L1,0 L0,10 L-5,7 L-4,5 L0,3 Z " fill="#B8B7B5" transform="translate(119,290)"/>
<path d="M0,0 L4,2 L4,4 L6,6 L4,9 L2,5 L-3,3 Z " fill="#BABABA" transform="translate(264,236)"/>
<path d="M0,0 L11,0 L11,2 L15,1 L15,3 L10,5 L10,1 L0,1 Z " fill="#A6A2A4" transform="translate(242,229)"/>
<path d="M0,0 L3,0 L2,11 L1,11 L1,5 L-1,5 Z " fill="#BFBEBC" transform="translate(115,300)"/>
<path d="M0,0 L1,0 L2,10 L2,13 L-2,14 L-1,11 Z M3,9 Z " fill="#C2C1C1" transform="translate(395,247)"/>
<path d="M0,0 L3,0 L1,4 L-3,7 L-2,1 Z " fill="#C4C4C4" transform="translate(45,309)"/>
<path d="M0,0 L4,1 L8,3 L2,3 L0,6 L-2,6 Z " fill="#ACAAAB" transform="translate(39,225)"/>
<path d="M0,0 L0,3 L-3,5 L-12,4 L-11,2 L-3,2 Z M-4,5 Z " fill="#8B8A8B" transform="translate(392,261)"/>
<path d="M0,0 L2,2 L1,6 L-3,8 L-1,1 Z " fill="#CAC8C9" transform="translate(68,218)"/>
<path d="M0,0 L1,0 L2,8 L3,9 L3,14 L0,10 Z " fill="#777574" transform="translate(33,240)"/>
<path d="M0,0 L3,3 L1,7 L-1,7 L-1,1 Z " fill="#F2F0F1" transform="translate(57,249)"/>
<path d="M0,0 L2,1 L4,8 L-2,7 L-2,5 L1,5 Z " fill="#AAA9A6" transform="translate(99,232)"/>
<path d="M0,0 L3,0 L2,4 L-1,6 L-1,1 Z " fill="#C7C7C5" transform="translate(55,298)"/>
<path d="M0,0 L3,0 L3,7 L1,7 L0,4 L-1,1 Z " fill="#E4D3E2" transform="translate(54,270)"/>
<path d="M0,0 L4,1 L-3,4 L-5,3 Z " fill="#F1F1F1" transform="translate(324,249)"/>
</svg>
