<?xml version="1.0" encoding="UTF-8"?>
<svg version="1.1" xmlns="http://www.w3.org/2000/svg" width="1024" height="1024">
<path d="M0,0 L1024,0 L1024,1024 L0,1024 Z " fill="#202020" transform="translate(0,0)"/>
<path d="M0,0 L766,0 L766,395 L763,395 L761,391 L758,390 L756,388 L752,390 L749,390 L748,392 L747,392 L747,394 L750,394 L752,400 L750,400 L750,398 L745,399 L745,397 L748,396 L745,395 L745,392 L743,392 L742,396 L742,394 L737,393 L740,395 L739,399 L735,397 L731,396 L731,393 L728,394 L731,397 L737,400 L738,402 L732,400 L726,396 L725,398 L720,398 L721,400 L716,400 L712,396 L712,398 L714,398 L714,400 L707,400 L705,395 L709,394 L708,390 L699,389 L700,393 L696,391 L697,392 L700,395 L699,399 L696,398 L698,398 L698,396 L689,396 L690,387 L687,386 L689,385 L692,386 L688,383 L682,383 L682,380 L686,381 L686,377 L688,377 L688,375 L694,374 L694,372 L690,371 L685,367 L683,362 L681,363 L680,366 L678,366 L679,361 L677,361 L677,363 L675,363 L674,366 L671,363 L672,359 L670,354 L674,352 L675,350 L679,351 L682,348 L682,352 L687,354 L686,350 L687,347 L692,349 L692,343 L692,340 L689,334 L686,334 L686,332 L697,331 L691,329 L691,331 L687,329 L686,327 L685,331 L683,323 L681,323 L678,319 L678,315 L673,318 L671,320 L671,318 L669,318 L668,316 L664,314 L663,314 L664,320 L662,323 L660,323 L659,326 L655,325 L652,325 L647,322 L647,318 L647,316 L653,318 L653,316 L647,315 L645,316 L645,314 L642,314 L642,316 L640,316 L637,311 L637,306 L632,304 L632,311 L627,312 L627,302 L632,301 L631,298 L628,298 L623,298 L622,301 L621,302 L620,303 L622,305 L622,309 L619,312 L615,310 L610,309 L610,306 L607,307 L606,303 L608,303 L606,294 L609,293 L611,294 L610,291 L612,287 L617,285 L613,279 L607,277 L608,275 L611,276 L611,274 L606,273 L606,271 L602,274 L601,271 L596,272 L591,275 L593,277 L588,276 L590,280 L587,280 L585,276 L585,278 L587,281 L590,283 L587,285 L589,289 L593,290 L595,295 L592,293 L591,295 L586,296 L586,293 L583,292 L585,291 L585,289 L583,289 L581,296 L580,299 L572,302 L570,302 L571,307 L567,309 L564,312 L560,308 L563,312 L563,314 L565,315 L562,315 L562,313 L560,313 L560,311 L556,309 L554,307 L553,311 L550,311 L550,313 L552,314 L550,315 L553,315 L556,316 L551,321 L552,322 L557,322 L559,331 L557,331 L556,335 L562,334 L563,331 L569,332 L573,331 L577,332 L581,333 L584,337 L582,337 L582,339 L580,339 L580,336 L577,346 L575,347 L579,350 L585,352 L585,350 L589,351 L591,350 L594,353 L599,355 L599,357 L595,358 L594,356 L594,360 L598,361 L599,364 L604,366 L603,371 L605,372 L605,374 L601,373 L601,376 L598,376 L598,378 L602,377 L603,375 L607,376 L605,380 L607,386 L604,386 L604,384 L600,382 L598,380 L597,384 L593,385 L591,384 L592,378 L596,376 L596,374 L592,370 L594,365 L589,364 L585,358 L583,356 L585,356 L585,354 L581,354 L581,356 L577,358 L577,361 L574,360 L574,362 L570,361 L570,363 L568,364 L569,366 L563,365 L556,363 L553,363 L551,362 L552,365 L549,366 L549,373 L549,376 L547,374 L547,371 L545,371 L543,363 L547,362 L548,358 L547,354 L542,353 L541,357 L542,359 L539,359 L538,359 L533,360 L529,352 L532,353 L531,349 L532,347 L534,348 L531,345 L529,344 L528,346 L526,344 L527,340 L527,337 L531,339 L532,334 L527,334 L527,332 L522,330 L525,329 L525,327 L521,326 L520,321 L519,317 L519,315 L517,315 L514,311 L514,309 L512,309 L511,311 L506,310 L505,307 L507,305 L507,303 L505,302 L503,299 L499,300 L500,295 L495,294 L495,292 L497,291 L495,290 L495,288 L500,288 L500,286 L503,286 L502,283 L506,285 L506,289 L507,288 L507,286 L512,285 L512,282 L513,278 L511,277 L510,281 L508,281 L508,283 L504,282 L505,278 L506,278 L506,276 L509,274 L507,272 L508,269 L510,269 L510,267 L507,267 L507,265 L503,267 L499,263 L495,261 L497,257 L496,252 L494,255 L493,258 L490,254 L491,249 L489,249 L488,246 L484,246 L485,248 L484,251 L480,255 L477,258 L477,256 L475,256 L476,252 L474,252 L474,254 L469,252 L466,251 L463,252 L463,254 L456,252 L457,254 L456,256 L459,256 L460,254 L466,256 L466,258 L461,258 L461,260 L459,261 L459,264 L458,266 L461,267 L457,268 L463,271 L462,273 L466,273 L469,274 L470,272 L473,274 L473,276 L469,277 L469,281 L472,282 L474,289 L470,290 L468,293 L467,290 L464,289 L464,284 L466,283 L466,281 L462,280 L459,282 L457,281 L456,284 L452,287 L449,287 L448,290 L446,289 L443,288 L441,289 L440,291 L435,288 L437,283 L439,278 L438,273 L441,270 L437,269 L436,266 L434,266 L435,270 L432,269 L432,266 L428,262 L424,260 L425,258 L430,260 L432,261 L432,259 L427,257 L429,252 L423,255 L421,254 L421,252 L419,251 L420,250 L415,248 L412,249 L411,252 L403,251 L400,249 L398,248 L402,246 L407,249 L409,247 L411,243 L408,239 L412,238 L413,238 L413,235 L411,235 L411,233 L414,233 L412,227 L415,223 L412,221 L416,220 L419,222 L419,220 L413,218 L411,215 L409,217 L408,215 L405,216 L404,221 L403,224 L399,226 L392,224 L388,224 L385,224 L382,227 L376,227 L377,222 L377,220 L376,215 L379,216 L376,213 L376,210 L369,209 L371,218 L372,218 L372,213 L374,212 L375,221 L372,221 L375,223 L375,225 L370,223 L375,228 L376,232 L375,235 L377,235 L377,237 L375,239 L374,243 L369,242 L367,242 L370,249 L370,252 L366,251 L365,255 L362,252 L360,252 L360,249 L358,249 L356,244 L358,244 L355,239 L349,238 L354,240 L354,245 L352,245 L352,241 L350,241 L350,243 L346,245 L345,247 L345,243 L343,243 L342,239 L345,238 L344,234 L343,233 L341,231 L335,236 L329,236 L329,238 L323,236 L323,238 L328,239 L328,241 L321,239 L320,235 L314,239 L307,241 L305,246 L305,252 L303,252 L302,249 L298,247 L298,249 L293,248 L290,249 L289,246 L287,245 L291,243 L290,240 L292,237 L294,239 L296,234 L300,234 L300,227 L293,224 L293,221 L291,220 L293,229 L291,230 L292,232 L291,235 L288,234 L288,231 L283,234 L281,233 L281,235 L285,235 L285,238 L287,238 L286,240 L281,238 L278,238 L278,236 L273,236 L271,239 L266,236 L266,238 L263,238 L262,244 L260,247 L260,249 L257,249 L258,252 L252,250 L249,247 L247,249 L244,250 L241,248 L241,246 L238,247 L238,245 L236,245 L236,243 L239,243 L234,242 L230,243 L228,245 L224,243 L220,244 L219,242 L223,238 L219,237 L219,234 L216,232 L218,228 L217,226 L217,221 L223,220 L223,218 L219,217 L217,212 L215,211 L215,213 L211,214 L211,216 L213,217 L210,217 L208,213 L204,209 L205,203 L208,199 L203,192 L196,192 L197,189 L200,189 L199,187 L195,184 L194,181 L190,180 L194,179 L193,174 L190,175 L188,172 L192,171 L192,169 L199,169 L200,164 L203,164 L204,160 L201,158 L201,156 L199,155 L200,153 L196,154 L191,156 L191,154 L189,155 L190,157 L188,159 L182,166 L180,164 L180,159 L179,155 L176,156 L173,152 L170,152 L170,155 L167,158 L166,161 L159,163 L158,157 L163,159 L163,157 L159,156 L159,151 L163,148 L156,142 L156,140 L154,140 L152,135 L155,133 L154,130 L151,129 L151,126 L155,126 L154,124 L155,121 L157,120 L153,119 L150,121 L150,123 L143,121 L141,121 L141,113 L142,110 L139,107 L142,104 L139,102 L138,99 L135,101 L134,100 L133,102 L129,100 L130,97 L128,96 L131,96 L131,98 L135,96 L136,93 L134,92 L137,87 L136,85 L139,85 L140,86 L140,84 L142,84 L143,80 L146,79 L147,79 L145,76 L150,78 L150,71 L148,67 L147,59 L146,54 L143,51 L140,56 L135,54 L132,54 L137,56 L138,58 L134,58 L128,56 L126,56 L126,54 L124,54 L124,59 L120,59 L121,62 L116,61 L114,60 L113,61 L113,63 L110,63 L110,65 L101,63 L101,70 L101,73 L99,72 L98,73 L94,72 L96,76 L93,78 L86,80 L85,82 L85,79 L87,79 L87,70 L85,68 L84,70 L82,69 L82,87 L77,88 L78,91 L75,90 L77,83 L74,84 L71,80 L75,81 L74,80 L73,77 L71,77 L69,79 L65,80 L61,74 L55,76 L53,78 L54,81 L52,81 L52,83 L54,83 L54,88 L52,89 L51,94 L47,93 L46,98 L47,101 L49,101 L49,108 L41,109 L41,105 L37,103 L33,98 L31,94 L28,93 L28,91 L30,90 L27,86 L32,87 L36,86 L36,84 L38,84 L39,87 L40,85 L43,85 L43,83 L45,83 L44,80 L46,80 L46,77 L48,75 L47,72 L49,72 L49,74 L51,73 L51,67 L53,62 L51,62 L51,57 L48,57 L46,59 L41,57 L41,55 L39,55 L41,59 L42,63 L44,62 L46,64 L43,72 L40,71 L40,69 L38,69 L37,70 L35,70 L34,65 L31,66 L30,64 L32,63 L30,62 L33,57 L31,53 L33,50 L36,53 L35,51 L35,45 L35,42 L36,40 L38,39 L26,38 L26,41 L29,43 L24,45 L23,47 L17,47 L17,45 L19,45 L17,39 L15,38 L14,40 L10,39 L9,35 L5,33 L6,29 L6,21 L4,20 L5,14 L3,14 L1,12 L-1,12 L-2,5 L0,2 Z M44,99 L45,101 Z M156,117 Z M161,144 Z M394,218 L396,221 L396,218 Z M392,220 L392,222 L395,223 L394,220 Z M433,255 Z M477,255 Z M430,256 L430,258 L433,257 Z M598,364 Z M10,40 Z M114,61 L116,61 L116,63 L114,63 Z M98,73 L101,74 L97,77 Z M64,80 Z M38,83 Z M78,89 Z M33,99 Z M200,158 Z M202,196 L206,198 L202,197 Z M388,224 L392,224 L391,227 L389,227 Z M287,237 Z M275,238 L278,238 L279,241 L275,240 Z M368,243 L370,244 Z M236,247 L238,248 Z M401,251 L403,251 L405,257 L407,258 L408,255 L409,257 L414,258 L413,260 L411,260 L411,262 L414,263 L412,267 L414,267 L414,269 L412,269 L409,272 L405,272 L405,274 L400,273 L398,272 L398,274 L401,274 L401,276 L397,275 L401,278 L402,276 L404,276 L406,280 L403,280 L403,282 L407,283 L403,285 L399,285 L400,288 L396,288 L399,293 L399,299 L401,301 L400,306 L404,306 L404,308 L401,309 L401,313 L397,314 L393,311 L389,312 L389,307 L387,306 L387,312 L383,311 L383,307 L386,302 L383,301 L386,299 L388,299 L387,294 L384,292 L384,289 L381,289 L379,289 L380,294 L377,292 L376,283 L372,278 L374,273 L376,270 L376,265 L373,263 L372,265 L369,265 L367,260 L375,261 L378,260 L379,257 L384,258 L387,261 L391,260 L394,254 L397,255 L398,254 L401,254 Z M504,303 L505,305 L503,304 Z M606,307 Z M626,312 Z M559,327 L561,328 L559,329 Z M601,385 L604,386 L604,388 L601,387 Z M727,397 Z " fill="#292929" transform="translate(258,0)"/>
<path d="M0,0 L30,0 L40,16 L57,45 L72,70 L86,94 L92,105 L92,107 L94,107 L93,105 L93,0 L122,0 L122,162 L93,162 L86,152 L70,125 L56,102 L45,84 L36,68 L32,60 L31,163 L0,163 Z " fill="#E8E8E8" transform="translate(95,404)"/>
<path d="M0,0 L30,0 L31,162 L3,162 L0,150 L-9,159 L-19,164 L-41,164 L-52,160 L-61,153 L-70,140 L-75,126 L-76,122 L-76,88 L-73,75 L-67,63 L-58,53 L-47,46 L-41,44 L-18,44 L-8,48 L-2,52 L-2,54 L0,54 Z " fill="#E8E8E8" transform="translate(739,404)"/>
<path d="M0,0 L12,0 L22,2 L31,8 L36,12 L42,22 L45,31 L46,38 L46,87 L45,119 L16,119 L15,43 L11,32 L6,27 L2,25 L-8,25 L-15,28 L-23,35 L-25,37 L-26,119 L-55,119 L-56,36 L-62,28 L-67,25 L-80,25 L-91,32 L-95,36 L-96,120 L-126,120 L-126,2 L-99,2 L-97,15 L-90,8 L-80,2 L-77,1 L-53,1 L-43,5 L-35,12 L-32,16 L-32,18 L-24,11 L-16,5 L-7,1 Z " fill="#E8E7E8" transform="translate(488,447)"/>
<path d="M0,0 L18,0 L31,4 L39,8 L49,17 L55,26 L59,36 L61,45 L61,74 L57,90 L52,100 L43,110 L33,117 L25,120 L19,121 L-8,121 L-21,116 L-30,110 L-38,101 L-44,89 L-47,78 L-48,71 L-48,46 L-45,35 L-38,21 L-29,11 L-19,5 L-8,1 Z " fill="#E8E8E8" transform="translate(284,447)"/>
<path d="M0,0 L19,0 L31,3 L42,9 L50,17 L56,29 L58,46 L58,119 L31,119 L30,114 L30,105 L28,105 L26,109 L18,116 L7,121 L3,122 L-12,122 L-22,119 L-30,114 L-36,107 L-40,96 L-40,79 L-35,67 L-30,61 L-21,55 L-13,51 L-1,48 L28,48 L27,36 L24,30 L21,27 L15,25 L0,25 L-12,30 L-18,34 L-23,32 L-33,22 L-32,18 L-27,13 L-20,7 L-12,3 Z " fill="#E8E8E9" transform="translate(588,447)"/>
<path d="M0,0 L31,0 L43,36 L51,61 L56,83 L59,75 L66,50 L73,28 L82,0 L112,0 L109,10 L94,54 L80,94 L72,118 L68,129 L64,139 L58,149 L53,155 L43,161 L37,163 L13,163 L9,161 L9,138 L15,139 L26,139 L32,136 L36,129 L39,122 L39,114 L34,100 L22,66 L18,54 L3,11 L0,3 Z " fill="#E8E8E8" transform="translate(836,449)"/>
<path d="M0,0 L30,0 L31,136 L34,139 L41,140 L41,163 L16,163 L6,158 L0,148 Z " fill="#E9E8E9" transform="translate(791,404)"/>
<path d="M0,0 L16,0 L22,3 L27,8 L31,18 L32,25 L32,47 L30,58 L26,66 L19,72 L12,74 L3,74 L-7,70 L-11,65 L-15,57 L-17,46 L-17,28 L-15,16 L-11,8 L-3,1 Z " fill="#1E1E1F" transform="translate(283,471)"/>
<path d="M0,0 L10,0 L19,4 L24,8 L27,12 L27,61 L22,67 L13,73 L10,74 L-1,74 L-11,68 L-17,59 L-21,46 L-21,28 L-17,15 L-13,9 L-5,2 Z " fill="#222222" transform="translate(712,470)"/>
<path d="M0,0 L1,0 L1,73 L-26,73 L-27,68 L-27,59 L-29,59 L-31,63 L-39,70 L-42,71 L-45,71 L-49,72 L-50,69 L-52,68 L-52,66 L-53,64 L-50,61 L-50,59 L-52,59 L-51,54 L-47,52 L-59,51 L-65,47 L-68,43 L-68,31 L-64,26 L-55,21 L-50,20 L-28,20 L-28,41 L-32,46 L-29,44 L-29,46 L-25,46 L-24,44 L-21,44 L-21,41 L-19,41 L-19,43 L-15,41 L-10,42 L-7,44 L-8,46 L-10,45 L-9,47 L-4,46 L-1,47 Z M-50,58 Z M-10,39 L-8,41 L-10,42 Z " fill="#E5E5E5" transform="translate(645,493)"/>
<path d="M0,0 L1,0 L2,136 L5,139 L12,140 L12,163 L-13,163 L-23,158 L-29,148 L-28,140 L-28,98 L-26,98 L-26,100 L-24,100 L-23,97 L-23,99 L-21,99 L-20,96 L-17,96 L-15,96 L-14,93 L-13,94 L-11,92 L-9,93 L-3,93 L-4,95 L-7,96 L-6,99 L-4,99 L-1,102 Z M-7,99 Z " fill="#E3E3E3" transform="translate(820,404)"/>
<path d="M0,0 L4,1 L5,4 L10,4 L9,11 L7,12 L10,13 L14,12 L14,8 L16,8 L16,5 L14,5 L15,1 L18,4 L19,5 L19,3 L22,3 L20,0 L26,0 L26,4 L28,5 L28,7 L31,9 L53,10 L53,11 L23,11 L23,155 L22,155 L21,35 L20,55 L20,57 L19,60 L14,61 L14,64 L10,65 L9,65 L9,67 L6,67 L7,73 L5,74 L3,73 L2,11 L-5,9 L-2,7 L2,6 L-2,4 Z M4,5 Z " fill="#313131" transform="translate(768,393)"/>
<path d="M0,0 L21,0 L21,20 L13,28 L6,31 L-9,31 L-15,27 L-18,23 L-18,11 L-14,6 L-5,1 Z " fill="#212121" transform="translate(595,513)"/>
<path d="M0,0 L2,0 L3,6 L4,43 L4,61 L10,63 L8,65 L9,68 L7,69 L12,70 L11,63 L13,62 L13,57 L17,56 L17,53 L26,50 L28,51 L27,48 L29,2 L30,2 L30,85 L1,85 Z " fill="#E9E9E9" transform="translate(432,481)"/>
<path d="M0,0 L7,6 L9,10 L10,11 L11,15 L8,15 L10,16 L9,26 L10,28 L13,28 L16,30 L17,28 L16,32 L13,32 L13,30 L11,30 L11,32 L6,33 L6,36 L0,38 L-1,38 L-3,40 L-5,36 L-9,36 L-9,33 L-12,32 L-12,30 L-14,30 L-13,34 L-18,32 L-17,30 L-15,28 L-15,22 L-19,22 L-19,20 L-21,19 L-19,15 L-14,12 L-10,10 L-10,8 L-8,7 L-13,7 L-14,5 L-12,1 L-11,4 L-5,5 L-5,7 L2,5 L2,3 L0,3 Z " fill="#262626" transform="translate(718,301)"/>
<path d="M0,0 L29,0 L29,1 L1,2 L1,109 L-1,109 L-13,87 L-24,68 L-23,66 L-20,70 L-19,69 L-14,69 L-15,64 L-13,62 L-10,63 L-6,62 L-3,63 L-2,2 Z " fill="#1F1E1F" transform="translate(188,402)"/>
<path d="M0,0 L27,0 L27,14 L26,14 L25,2 L2,2 L2,116 L10,115 L23,115 L28,116 L28,34 L35,27 L35,30 L31,34 L30,118 L0,118 Z " fill="#DBDBDB" transform="translate(362,449)"/>
<path d="M0,0 L30,0 L30,158 L29,158 L28,153 L28,2 L2,2 L2,54 L0,54 Z " fill="#F1F1F1" transform="translate(739,404)"/>
<path d="M0,0 L5,3 L8,2 L8,8 L11,11 L10,15 L10,17 L11,21 L11,24 L9,24 L9,27 L11,28 L9,33 L14,35 L15,43 L16,47 L18,47 L18,49 L15,52 L13,52 L11,50 L8,52 L5,48 L5,45 L7,43 L6,43 L3,43 L3,39 L5,38 L4,35 L9,37 L4,32 L-2,29 L-4,26 L-9,24 L-5,23 L-8,21 L-6,18 L-7,15 L-4,15 L-4,13 L0,13 L1,11 L3,12 L3,10 L1,10 L2,8 L4,8 L1,6 L4,5 L0,3 Z M11,41 L10,45 L13,47 L15,45 L13,45 L13,41 Z M12,48 Z " fill="#272727" transform="translate(360,67)"/>
<path d="M0,0 L30,0 L27,10 L22,25 L20,25 L18,27 L17,23 L17,21 L14,22 L10,20 L9,13 L6,9 L5,5 L2,4 L2,2 Z " fill="#E2E2E2" transform="translate(918,449)"/>
<path d="M0,0 L29,0 L29,134 L28,134 L28,2 L2,2 L2,145 L0,146 Z " fill="#FBFBFB" transform="translate(791,404)"/>
<path d="M0,0 L2,0 L3,6 L4,43 L3,84 L16,83 L28,84 L28,55 L29,2 L30,2 L30,85 L1,85 Z " fill="#F8F8F8" transform="translate(432,481)"/>
<path d="M0,0 L6,0 L7,2 L4,3 L7,4 L8,9 L10,9 L10,16 L6,16 L9,18 L8,20 L10,25 L8,25 L8,23 L1,24 L1,20 L4,20 L4,18 L0,19 L0,23 L-3,22 L-3,19 L-8,19 L-9,15 L-8,12 L-12,12 L-11,9 L-7,8 L-5,6 L0,5 Z " fill="#272727" transform="translate(202,9)"/>
<path d="M0,0 L28,0 L28,162 L-1,162 L-2,158 L1,160 L27,161 L26,147 L25,145 L27,145 L27,2 L1,2 L1,22 L0,22 Z " fill="#FCFCFD" transform="translate(189,404)"/>
<path d="M0,0 L1,0 L2,11 L6,11 L5,9 L8,8 L10,5 L14,6 L18,5 L17,9 L24,11 L24,13 L15,16 L15,18 L13,18 L13,22 L19,23 L19,24 L8,24 L4,25 L0,23 Z " fill="#E0DFE0" transform="translate(845,587)"/>
<path d="M0,0 L4,1 L4,4 L6,7 L8,7 L8,5 L12,4 L13,6 L15,5 L16,10 L18,10 L21,14 L20,16 L16,17 L15,21 L13,21 L13,19 L7,18 L6,21 L2,19 L1,17 L2,13 L-3,10 L-4,6 L-2,6 L-2,2 L0,2 Z M15,10 Z " fill="#272727" transform="translate(587,243)"/>
<path d="M0,0 L29,0 L29,1 L1,2 L1,109 L-1,109 L-5,101 L-4,98 L-3,99 L-2,2 Z " fill="#100F10" transform="translate(188,402)"/>
<path d="M0,0 L1,0 L2,128 L4,134 L2,134 L3,138 L3,151 L2,160 L6,159 L4,164 L-31,164 L-31,163 L0,163 Z " fill="#010101" transform="translate(218,404)"/>
<path d="M0,0 L5,1 L5,3 L2,6 L3,12 L7,13 L8,15 L4,15 L5,20 L3,23 L-4,27 L-5,22 L-9,21 L-10,19 L-9,18 L-7,14 L-9,10 L-8,7 L-6,8 L-7,6 L-4,6 L-4,4 L-2,4 Z M1,12 L2,14 L3,12 Z " fill="#252525" transform="translate(229,100)"/>
<path d="M0,0 L30,0 L32,4 L29,3 L1,2 L3,23 L2,98 L1,98 L0,72 Z " fill="#F9F9F9" transform="translate(95,404)"/>
<path d="M0,0 L1,0 L1,104 L-28,104 L-28,43 L-27,43 L-26,101 L-19,102 L0,103 Z " fill="#FDFCFD" transform="translate(124,462)"/>
<path d="M0,0 L2,0 L2,2 L5,3 L4,8 L7,8 L6,6 L10,6 L11,12 L8,13 L8,15 L3,15 L4,18 L1,18 L2,22 L0,21 L-2,18 L-5,16 L-6,22 L-9,22 L-8,18 L-8,16 L-9,12 L-6,12 L-5,9 L-5,11 L-3,11 L-3,6 L-5,3 L1,4 Z M-1,6 L0,9 L4,8 Z " fill="#262626" transform="translate(408,207)"/>
<path d="M0,0 L3,0 L5,4 L12,6 L12,10 L10,10 L10,12 L16,12 L18,18 L16,22 L12,23 L12,21 L10,21 L11,25 L8,24 L8,22 L2,20 L2,18 L7,19 L7,15 L8,12 L6,11 L3,10 L3,7 L0,6 Z " fill="#262526" transform="translate(243,101)"/>
<path d="M0,0 L2,3 L2,80 L14,79 L18,78 L28,80 L28,52 L29,52 L30,59 L30,81 L1,81 Z " fill="#FAFAFA" transform="translate(503,485)"/>
<path d="M0,0 L3,1 L2,4 L1,107 L-30,107 L-30,106 L0,106 L-1,1 Z " fill="#BFBFBF" transform="translate(125,460)"/>
<path d="M0,0 L3,0 L5,4 L9,4 L11,4 L12,9 L15,10 L14,13 L10,14 L9,16 L4,16 L3,13 L4,11 L2,11 L1,13 L0,9 L1,3 Z M15,5 L17,5 L17,7 L20,8 L19,10 L15,8 Z " fill="#262626" transform="translate(816,368)"/>
<path d="M0,0 L5,1 L8,1 L10,7 L10,9 L11,4 L14,3 L17,1 L17,3 L20,4 L19,11 L14,13 L12,16 L8,14 L7,7 L2,6 L0,4 L2,2 Z " fill="#262626" transform="translate(964,420)"/>
<path d="M0,0 L4,2 L8,4 L8,6 L6,7 L7,9 L5,13 L6,18 L1,18 L-1,20 L-3,19 L-3,16 L-5,16 L-9,6 L-7,6 L-7,8 L-5,8 L-5,10 L1,10 L1,4 L1,2 Z " fill="#262626" transform="translate(240,132)"/>
<path d="M0,0 L18,0 L19,5 L13,3 L19,7 L20,11 L18,10 L18,8 L17,9 L17,11 L13,9 L8,8 L7,11 L5,7 L9,7 L9,5 L4,4 L4,1 L2,1 L3,5 L-1,4 Z " fill="#313131" transform="translate(1000,0)"/>
<path d="M0,0 L3,0 L7,2 L8,4 L10,5 L10,7 L13,7 L13,10 L17,11 L13,12 L-2,12 L-2,11 L3,10 L-5,9 L-5,5 L-1,7 L1,8 L1,6 L-2,5 L1,4 Z " fill="#E5E5E5" transform="translate(578,557)"/>
<path d="M0,0 L2,0 L2,2 L8,4 L8,1 L10,1 L12,9 L10,10 L12,15 L4,12 L1,8 L-5,6 L-5,4 L-3,3 Z " fill="#262626" transform="translate(514,268)"/>
<path d="M0,0 L4,4 L2,4 L3,10 L-2,9 L-1,14 L-3,14 L-4,16 L-15,8 L-14,4 L-10,8 L-8,8 L-8,11 L-4,5 L-7,3 L-7,1 L-1,1 Z " fill="#282828" transform="translate(735,294)"/>
<path d="M0,0 L2,0 L2,49 L-2,52 L-1,48 Z " fill="#333333" transform="translate(737,482)"/>
<path d="M0,0 L4,2 L7,6 L8,9 L8,21 L-24,21 L-21,19 L6,19 L4,6 L0,2 Z " fill="#191819" transform="translate(608,474)"/>
<path d="M0,0 L3,1 L4,4 L1,7 L4,6 L5,8 L1,15 L-2,15 L-2,13 L-6,11 L-8,4 L-6,4 L-6,2 L0,3 Z " fill="#262626" transform="translate(675,310)"/>
<path d="M0,0 L6,3 L4,8 L-4,7 L-3,15 L-9,14 L-10,9 L-13,8 L-13,6 L-8,5 L-7,3 L-1,2 L3,6 L0,2 Z " fill="#272727" transform="translate(961,430)"/>
<path d="M0,0 L4,3 L2,4 L4,11 L6,16 L6,19 L4,19 L4,21 L6,22 L2,22 L5,25 L2,26 L5,29 L0,29 Z " fill="#262626" transform="translate(823,419)"/>
<path d="M0,0 L2,1 L2,38 L2,41 L2,49 L1,51 L-1,50 Z " fill="#F8F7F8" transform="translate(739,481)"/>
<path d="M0,0 L18,2 L15,4 L8,5 L6,7 L7,9 L5,10 L6,12 L1,11 L1,22 L0,22 Z " fill="#F2F2F2" transform="translate(846,587)"/>
<path d="M0,0 L21,0 L21,20 L14,27 L11,26 L18,20 L19,2 L-1,2 Z " fill="#111111" transform="translate(595,513)"/>
<path d="M0,0 L4,2 L6,4 L6,9 L10,10 L10,13 L-1,13 L-7,8 L-3,7 L0,7 L0,9 L3,9 L1,5 L2,2 L0,2 Z M8,7 L14,8 L15,10 L10,10 Z " fill="#282828" transform="translate(996,404)"/>
<path d="M0,0 L4,2 L6,7 L10,13 L13,14 L12,17 L11,20 L7,20 L6,22 L4,18 L6,18 L6,14 L7,13 L2,10 L2,7 L0,7 L-2,3 L0,3 Z M-2,5 Z " fill="#282828" transform="translate(665,286)"/>
<path d="M0,0 L1,0 L2,62 L3,72 L1,72 L-3,64 L-2,61 L-1,62 Z " fill="#030303" transform="translate(186,439)"/>
<path d="M0,0 L3,4 L1,5 L3,8 L2,12 L1,9 L-1,9 L0,12 L-6,10 L-7,5 L-10,5 L-11,9 L-13,11 L-14,8 L-10,3 L-5,2 L-3,1 L-3,3 L0,3 Z " fill="#272726" transform="translate(271,58)"/>
<path d="M0,0 L5,1 L11,5 L9,6 L5,6 L7,10 L11,12 L8,12 L9,16 L3,17 L2,14 L4,11 L0,6 L3,5 L-1,4 Z " fill="#EDECED" transform="translate(508,450)"/>
<path d="M0,0 L5,0 L8,3 L8,5 L5,5 L5,7 L7,7 L7,12 L4,12 L3,15 L1,11 L-2,14 L-4,13 L-3,10 L-1,9 L0,3 Z " fill="#282828" transform="translate(966,404)"/>
<path d="M0,0 L2,4 L3,6 L1,6 L2,10 L2,23 L1,32 L5,31 L3,36 L-32,36 L-32,35 L-1,34 Z " fill="#101010" transform="translate(219,532)"/>
<path d="M0,0 L4,1 L3,5 L8,6 L13,5 L15,8 L13,9 L13,7 L8,9 L7,12 L-1,11 L1,6 L-1,4 L-2,2 L0,2 Z " fill="#272727" transform="translate(340,133)"/>
<path d="M0,0 L5,2 L8,2 L8,5 L6,4 L8,9 L6,10 L6,8 L4,8 L5,12 L1,12 L-3,11 Z " fill="#272627" transform="translate(928,505)"/>
<path d="M0,0 L3,0 L5,6 L9,7 L8,8 L24,9 L24,10 L-7,10 L-7,9 L0,8 L-4,5 L-2,3 L1,3 Z " fill="#121111" transform="translate(101,393)"/>
<path d="M0,0 L27,0 L27,14 L26,14 L25,2 L2,2 L1,8 L0,8 Z " fill="#F5F5F5" transform="translate(362,449)"/>
<path d="M0,0 L2,1 L-3,7 L-4,65 L-5,65 L-6,6 Z " fill="#141414" transform="translate(469,477)"/>
<path d="M0,0 L18,0 L14,5 L10,4 L9,2 L-2,2 Z M7,3 L10,4 L10,7 L4,12 L3,8 Z " fill="#EFEFEF" transform="translate(586,448)"/>
<path d="M0,0 L4,4 L6,3 L11,6 L12,8 L9,8 L8,10 L6,10 L4,10 L3,12 L0,12 L-2,12 L-2,5 L1,3 Z " fill="#252625" transform="translate(858,326)"/>
<path d="M0,0 L4,2 L6,3 L8,6 L12,9 L12,11 L8,9 L2,14 L-4,7 L-6,7 L-6,5 L-2,5 L0,7 L4,6 L0,3 Z " fill="#282828" transform="translate(912,0)"/>
<path d="M0,0 L4,5 L4,9 L4,14 L-4,14 L-2,5 Z " fill="#292929" transform="translate(939,474)"/>
<path d="M0,0 L15,0 L15,3 L17,4 L12,4 L12,6 L5,7 L2,2 Z " fill="#272727" transform="translate(204,0)"/>
<path d="M0,0 L2,1 L0,3 L-4,5 L-5,9 L-1,13 L-6,15 L-6,13 L-11,11 L-8,4 Z " fill="#E6E6E6" transform="translate(478,449)"/>
<path d="M0,0 L4,4 L2,8 L11,10 L11,12 L4,11 L4,13 L-1,12 L-3,10 L-3,6 L-1,6 L-1,1 Z " fill="#282728" transform="translate(858,387)"/>
<path d="M0,0 L8,0 L9,5 L7,8 L-1,7 L-1,3 Z " fill="#272726" transform="translate(235,0)"/>
<path d="M0,0 L2,1 L1,6 L-1,7 L-3,6 L-3,8 L0,9 L-2,10 L-5,9 L-3,14 L-5,15 L-6,11 L-9,12 L-11,11 L-11,9 L-6,9 L-6,7 L-8,7 L-8,5 L-5,5 L-4,2 Z " fill="#272828" transform="translate(635,328)"/>
<path d="M0,0 L8,2 L6,8 L1,7 L1,9 L-3,10 L-6,7 L-6,5 L-4,5 L-4,7 L-2,7 L-1,4 Z " fill="#282828" transform="translate(218,6)"/>
<path d="M0,0 L5,2 L5,5 L7,6 L5,8 L6,13 L4,13 L4,15 L1,15 L2,11 L0,11 L1,9 L0,8 L-1,3 Z " fill="#272727" transform="translate(322,105)"/>
<path d="M0,0 L3,2 L4,3 L5,0 L8,1 L8,3 L10,4 L11,1 L16,1 L16,3 L13,6 L0,7 L0,5 L2,5 L2,3 L0,3 Z " fill="#272726" transform="translate(737,396)"/>
<path d="M0,0 L5,0 L8,5 L8,9 L6,10 L3,11 L0,6 Z M0,9 Z " fill="#262626" transform="translate(132,32)"/>
<path d="M0,0 L4,2 L3,6 L-14,6 L-17,3 L-7,3 L-3,1 L0,1 Z " fill="#EFEFEF" transform="translate(712,562)"/>
<path d="M0,0 L19,0 L23,2 L21,3 L23,4 L22,6 L20,5 L19,8 L14,6 L15,2 L0,1 Z " fill="#CCCCCC" transform="translate(588,447)"/>
<path d="M0,0 L4,1 L6,0 L7,3 L5,9 L1,9 L2,12 L-1,12 L-2,9 L0,5 L-1,1 Z M1,1 Z " fill="#262626" transform="translate(878,381)"/>
<path d="M0,0 L4,0 L4,4 L8,5 L5,9 L0,11 L-2,8 L1,8 L-1,6 L-1,3 L-4,4 L-4,2 L0,2 Z " fill="#2A2A2A" transform="translate(959,0)"/>
<path d="M0,0 L2,0 L3,5 L1,7 L-2,7 L-4,12 L-5,12 L-5,6 L-3,6 L-4,3 L-1,3 Z M-8,12 L-3,13 L-3,15 L-5,15 L-7,18 Z " fill="#272727" transform="translate(424,166)"/>
<path d="M0,0 L5,2 L7,4 L5,5 L5,7 L0,10 L2,14 L-2,12 L-3,5 L0,4 Z " fill="#262626" transform="translate(726,353)"/>
<path d="M0,0 L3,1 L4,6 L6,1 L10,2 L11,4 L9,5 L8,9 L4,10 L1,9 L1,7 L3,7 L3,5 L-2,4 L0,3 Z M1,3 Z " fill="#323232" transform="translate(945,12)"/>
<path d="M0,0 L2,0 L2,2 L21,2 L21,3 L-1,5 L-10,9 L-14,10 L-10,6 L-3,3 L0,3 Z " fill="#0F0F0F" transform="translate(482,444)"/>
<path d="M0,0 L3,1 L3,3 L6,3 L6,6 L10,7 L6,8 L-9,8 L-9,7 L-1,6 L-2,2 Z " fill="#CDCDCD" transform="translate(585,561)"/>
<path d="M0,0 L4,2 L5,4 L4,6 L7,5 L7,8 L2,13 L-1,4 Z " fill="#272728" transform="translate(403,147)"/>
<path d="M0,0 L8,2 L13,7 L11,7 L9,10 L5,9 L5,4 L1,2 Z " fill="#262626" transform="translate(355,123)"/>
<path d="M0,0 L9,0 L15,4 L15,7 L11,4 L8,7 L5,7 L3,2 Z " fill="#151516" transform="translate(412,471)"/>
<path d="M0,0 L3,0 L5,3 L8,11 L7,18 L5,14 L4,9 L1,8 Z " fill="#262626" transform="translate(843,480)"/>
<path d="M0,0 L2,0 L2,2 L4,2 L4,4 L6,5 L-2,4 L-2,6 L0,6 L0,8 L-11,6 L-11,4 L-6,2 L0,2 Z " fill="#292929" transform="translate(176,84)"/>
<path d="M0,0 L1,0 L1,24 L-1,25 L-2,23 L-2,5 Z " fill="#292929" transform="translate(693,493)"/>
<path d="M0,0 L2,4 L2,7 L4,5 L7,5 L7,7 L3,11 L-2,12 L-3,8 Z " fill="#282828" transform="translate(947,451)"/>
<path d="M0,0 L5,0 L11,4 L10,12 L7,9 L3,5 L4,2 L-1,2 Z " fill="#262626" transform="translate(466,265)"/>
<path d="M0,0 L2,3 L6,20 L4,20 L2,15 L-2,13 L0,11 L0,8 L-1,3 Z " fill="#DADADA" transform="translate(883,500)"/>
<path d="M0,0 L5,2 L6,5 L0,7 L1,10 L-1,10 L-1,7 L-3,6 L-2,1 Z " fill="#262626" transform="translate(938,394)"/>
<path d="M0,0 L1,2 L-1,2 L-1,4 L2,5 L1,7 L-2,7 L-1,10 L-7,8 L-9,5 L-3,2 Z " fill="#282828" transform="translate(867,318)"/>
<path d="M0,0 L2,0 L2,14 L0,11 L-1,6 L-6,11 L-8,10 Z " fill="#121112" transform="translate(616,552)"/>
<path d="M0,0 L18,0 L22,3 L0,2 Z " fill="#D2D2D2" transform="translate(284,447)"/>
<path d="M0,0 L2,0 L8,8 L12,18 L12,23 L10,21 L5,9 L0,2 Z " fill="#101010" transform="translate(332,462)"/>
<path d="M0,0 L5,1 L7,7 L4,7 L4,9 L1,9 L-1,3 Z " fill="#282829" transform="translate(387,59)"/>
<path d="M0,0 L4,2 L7,4 L6,6 L3,4 L2,9 L-2,8 L-3,10 L-5,5 L-3,4 L0,4 Z " fill="#282828" transform="translate(856,426)"/>
<path d="M0,0 L3,1 L2,4 L0,4 L0,8 L-3,7 L-7,8 L-8,5 L-5,2 L0,2 Z " fill="#272627" transform="translate(389,128)"/>
<path d="M0,0 L2,1 L2,3 L5,2 L5,4 L7,4 L7,6 L5,6 L6,9 L3,9 L-2,6 L0,5 L0,3 L-2,2 Z " fill="#282828" transform="translate(379,76)"/>
<path d="M0,0 L2,0 L3,8 L1,9 L1,7 L-3,8 L-5,4 L-4,2 Z " fill="#262626" transform="translate(158,9)"/>
<path d="M0,0 L4,1 L7,5 L6,8 L1,9 L-1,6 Z " fill="#EDEEEE" transform="translate(325,459)"/>
<path d="M0,0 L3,3 L8,5 L7,9 L6,10 L3,11 L3,9 L0,8 L2,5 L-2,1 Z M-3,2 Z M-1,9 Z " fill="#272727" transform="translate(320,119)"/>
<path d="M0,0 L4,1 L4,4 L8,5 L9,13 L5,15 L5,9 L3,8 L3,6 L1,5 Z M8,4 Z " fill="#282727" transform="translate(144,17)"/>
<path d="M0,0 L2,0 L2,3 L11,2 L6,7 L3,7 L3,4 L0,4 L-1,7 L-3,3 L-3,1 Z " fill="#E6E5E6" transform="translate(695,471)"/>
<path d="M0,0 L10,3 L19,4 L19,6 L8,6 L0,1 Z " fill="#282828" transform="translate(703,538)"/>
<path d="M0,0 L2,0 L2,8 L3,13 L-2,11 L-5,11 L-4,6 L0,6 Z " fill="#262626" transform="translate(847,325)"/>
<path d="M0,0 L6,0 L5,3 L1,3 L2,7 L-1,6 L-4,5 L-4,7 L-6,7 L-4,2 Z " fill="#272727" transform="translate(453,193)"/>
<path d="M0,0 L3,1 L4,6 L5,8 L-1,9 L-2,11 L-5,8 L-4,6 L0,5 Z " fill="#262626" transform="translate(228,138)"/>
<path d="M0,0 L8,0 L8,3 L7,5 L5,5 L6,9 L3,9 L1,3 L2,2 Z " fill="#EFEFF0" transform="translate(607,449)"/>
<path d="M0,0 L8,1 L13,4 L13,5 L8,5 L8,3 L3,3 L2,5 L-2,4 L-2,2 L0,2 Z " fill="#272828" transform="translate(846,442)"/>
<path d="M0,0 L6,1 L9,5 L6,5 L7,7 L5,7 L4,10 L0,5 L-1,3 L3,2 Z " fill="#292929" transform="translate(890,352)"/>
<path d="M0,0 L1,2 L6,3 L5,5 L3,4 L1,8 L1,11 L-2,9 L-3,5 L-2,2 L0,2 Z " fill="#262626" transform="translate(698,333)"/>
<path d="M0,0 L5,1 L2,3 L1,5 L-3,1 Z M-8,2 L-4,2 L-4,4 L0,5 L-3,7 L-8,6 Z " fill="#262627" transform="translate(225,158)"/>
<path d="M0,0 L2,1 L1,2 L5,5 L4,7 L0,5 L-2,6 L-1,11 L-6,9 L-7,5 L-1,1 Z " fill="#DFDEDF" transform="translate(732,537)"/>
<path d="M0,0 L4,1 L6,5 L4,8 L-2,8 L-2,5 Z M3,3 Z " fill="#272727" transform="translate(327,138)"/>
<path d="M0,0 L5,1 L9,4 L9,6 L11,7 L8,8 L7,5 L2,5 L-2,3 L-2,1 Z " fill="#282828" transform="translate(924,373)"/>
<path d="M0,0 L3,0 L3,2 L5,2 L6,6 L8,6 L7,8 L3,6 L3,8 L1,8 L1,5 L-3,7 L-1,3 Z " fill="#303131" transform="translate(851,0)"/>
<path d="M0,0 L2,3 L5,4 L5,6 L8,7 L10,12 L6,10 L0,5 L-1,1 Z " fill="#E2E2E3" transform="translate(677,551)"/>
<path d="M0,0 L11,3 L11,6 L8,7 L8,9 L3,7 L3,3 Z " fill="#2E2F2F" transform="translate(861,103)"/>
<path d="M0,0 L5,1 L6,8 L-1,6 L-3,1 Z " fill="#272727" transform="translate(210,36)"/>
<path d="M0,0 L2,0 L0,4 L-9,12 L-14,11 L-12,9 L-5,6 Z " fill="#F2F2F2" transform="translate(736,553)"/>
<path d="M0,0 L1,4 L-4,18 L-6,19 L-6,12 L-3,11 L-1,1 Z " fill="#F2F1F2" transform="translate(918,530)"/>
<path d="M0,0 L7,2 L9,3 L9,6 L3,7 Z M4,7 L6,8 Z " fill="#262626" transform="translate(667,358)"/>
<path d="M0,0 L3,1 L3,3 L7,3 L7,8 L4,8 L5,6 L0,6 L-1,2 Z " fill="#272627" transform="translate(612,296)"/>
<path d="M0,0 L3,0 L3,4 L0,4 L2,7 L2,10 L0,10 L-4,6 L-3,4 L-4,1 L0,2 Z " fill="#292828" transform="translate(180,91)"/>
<path d="M0,0 L5,2 L12,4 L9,5 L9,7 L3,8 L2,3 Z " fill="#323232" transform="translate(1008,51)"/>
<path d="M0,0 L2,4 L1,8 L-3,8 L-3,6 L-5,6 L-5,2 Z " fill="#DBDBDB" transform="translate(266,517)"/>
<path d="M0,0 L3,3 L6,9 L6,13 L4,13 L3,8 L0,7 Z " fill="#191919" transform="translate(126,463)"/>
<path d="M0,0 L4,0 L4,2 L5,3 L10,9 L4,8 L1,5 Z " fill="#272626" transform="translate(838,390)"/>
<path d="M0,0 L4,2 L5,0 L6,3 L6,6 L2,7 L-3,4 L-2,2 L0,3 Z " fill="#262626" transform="translate(174,221)"/>
<path d="M0,0 L2,0 L4,6 L6,8 L4,8 L6,13 L5,16 L1,7 Z " fill="#F2F2F2" transform="translate(868,539)"/>
<path d="M0,0 L4,2 L4,7 L0,6 L0,8 L3,9 L2,11 L-2,10 L-2,3 L0,2 Z " fill="#282828" transform="translate(542,309)"/>
<path d="M0,0 L10,0 L11,2 L2,2 L-3,4 L-6,4 L-6,6 L-8,5 L-4,1 Z " fill="#0F0F0F" transform="translate(480,471)"/>
<path d="M0,0 L2,3 L4,12 L2,14 L-1,14 L0,8 L-1,2 Z " fill="#E0E0E0" transform="translate(870,461)"/>
<path d="M0,0 L5,2 L6,5 L2,9 L1,11 L-1,11 Z " fill="#292928" transform="translate(942,465)"/>
<path d="M0,0 L8,3 L8,5 L6,5 L6,8 L4,8 L3,6 L-1,4 Z " fill="#262526" transform="translate(644,331)"/>
<path d="M0,0 L4,4 L6,3 L11,6 L12,8 L9,8 L8,10 L1,5 Z " fill="#2B2B2B" transform="translate(858,326)"/>
<path d="M0,0 L7,5 L6,7 L3,6 L0,6 L-1,8 L-3,6 Z " fill="#272727" transform="translate(584,271)"/>
<path d="M0,0 L3,3 L4,8 L1,10 L0,8 L-4,7 L-4,5 L-2,5 L-1,3 L0,4 Z " fill="#262626" transform="translate(738,101)"/>
<path d="M0,0 L10,1 L11,3 L7,5 L7,7 L11,6 L11,8 L4,7 L4,4 Z " fill="#313131" transform="translate(794,92)"/>
<path d="M0,0 L3,1 L3,6 L-3,8 L-5,4 L-1,4 Z " fill="#272727" transform="translate(648,248)"/>
<path d="M0,0 L4,1 L5,4 L11,3 L13,6 L12,10 L9,7 L9,5 L4,5 Z " fill="#262626" transform="translate(163,198)"/>
<path d="M0,0 L4,2 L2,6 L1,8 L-2,7 L-3,2 L0,2 Z " fill="#262626" transform="translate(381,196)"/>
<path d="M0,0 L3,0 L3,2 L1,2 L4,7 L0,6 L-2,3 Z M-4,5 L-1,5 L1,9 L-2,9 Z " fill="#252626" transform="translate(188,196)"/>
<path d="M0,0 L6,0 L6,4 L8,4 L7,0 L11,2 L10,5 L5,6 L3,2 L0,2 Z " fill="#292929" transform="translate(344,121)"/>
<path d="M0,0 L2,0 L2,2 L-1,1 Z M-2,2 Z M-3,4 L1,9 L2,11 L1,14 L-1,14 L-3,8 L-4,5 Z M0,6 Z " fill="#262626" transform="translate(250,91)"/>
<path d="M0,0 L4,2 L5,7 L3,9 L-1,6 Z " fill="#272828" transform="translate(248,57)"/>
<path d="M0,0 L2,4 L5,7 L5,10 L-1,8 L-1,4 L-3,1 Z " fill="#292929" transform="translate(172,21)"/>
<path d="M0,0 L2,0 L3,4 L6,5 L4,7 L0,4 L0,8 L-2,8 L-4,2 Z " fill="#272727" transform="translate(108,22)"/>
<path d="M0,0 L2,2 L8,4 L8,6 L4,5 L3,9 L0,7 L-1,1 Z " fill="#272727" transform="translate(984,594)"/>
<path d="M0,0 L4,1 L-2,3 L-3,6 L-5,6 L-7,11 L-8,7 L-3,2 Z " fill="#171617" transform="translate(586,516)"/>
<path d="M0,0 L7,2 L8,4 L4,4 L7,5 L6,10 L4,10 L5,6 L0,5 Z " fill="#2E2E2E" transform="translate(799,120)"/>
<path d="M0,0 L3,1 L3,3 L6,4 L6,7 L4,7 L3,8 L0,9 Z " fill="#272727" transform="translate(834,558)"/>
<path d="M0,0 L1,0 L1,10 L4,10 L4,12 L2,12 L2,14 L0,14 L-1,10 L-1,2 Z " fill="#F4F3F4" transform="translate(237,508)"/>
<path d="M0,0 L3,1 L1,2 L3,6 L-1,6 L-3,11 L-4,7 Z " fill="#EEEEEF" transform="translate(245,470)"/>
<path d="M0,0 L1,4 L0,6 L3,6 L2,9 L-3,6 L-4,1 Z M1,9 Z " fill="#282828" transform="translate(799,379)"/>
<path d="M0,0 L4,1 L6,0 L8,1 L8,3 L6,4 L7,6 L2,5 L0,4 Z " fill="#272727" transform="translate(917,350)"/>
<path d="M0,0 L3,1 L2,2 L4,3 L4,5 L0,5 L4,8 L-1,7 L-2,9 L-3,3 Z " fill="#292929" transform="translate(595,263)"/>
<path d="M0,0 L1,0 L0,10 L-2,12 L-3,11 L-3,3 Z " fill="#1B1B1B" transform="translate(894,521)"/>
<path d="M0,0 L6,3 L5,6 L1,8 L-1,1 Z " fill="#262626" transform="translate(953,487)"/>
<path d="M0,0 L9,1 L11,4 L7,5 L2,3 L-4,2 Z " fill="#2B2B2B" transform="translate(308,447)"/>
<path d="M0,0 L3,0 L3,3 L1,3 L1,6 L-3,4 L-4,2 Z M-4,5 L-1,6 L-1,8 L-4,7 Z " fill="#2B2C2B" transform="translate(897,332)"/>
<path d="M0,0 L2,2 L2,6 L0,8 L1,11 L-1,13 L-2,9 L-1,1 Z M-3,13 L-1,13 L-2,15 Z " fill="#272727" transform="translate(857,309)"/>
<path d="M0,0 L3,1 L6,8 L0,8 L0,4 Z " fill="#282828" transform="translate(745,310)"/>
<path d="M0,0 L6,0 L7,4 L1,6 L0,3 L3,3 L0,2 Z M-1,6 L1,6 L0,8 Z " fill="#2F2F2F" transform="translate(800,83)"/>
<path d="M0,0 L3,1 L3,4 L5,4 L4,8 L2,8 L2,6 L-2,7 L-4,4 L0,5 Z " fill="#262626" transform="translate(112,54)"/>
<path d="M0,0 L5,1 L6,3 L3,3 L3,6 L1,6 L-1,8 L-2,4 L1,3 Z " fill="#19191A" transform="translate(172,837)"/>
<path d="M0,0 L2,2 L-9,8 L-13,6 L-1,1 Z " fill="#141414" transform="translate(886,605)"/>
<path d="M0,0 L1,3 L3,3 L3,5 L1,6 L2,9 L0,9 L-3,5 L-3,1 Z " fill="#262526" transform="translate(975,580)"/>
<path d="M0,0 L3,4 L3,6 L0,6 L-1,9 L-6,11 L-1,3 Z " fill="#DADADB" transform="translate(312,529)"/>
<path d="M0,0 L1,0 L2,14 L3,18 L1,18 L-1,21 Z " fill="#D4D4D4" transform="translate(315,502)"/>
<path d="M0,0 L2,1 L0,3 L-4,5 L-6,9 L-7,7 L-9,7 L-8,4 Z " fill="#DBDBDB" transform="translate(478,449)"/>
<path d="M0,0 L3,1 L5,3 L5,1 L9,3 L9,5 L1,7 L2,4 Z " fill="#292829" transform="translate(684,384)"/>
<path d="M0,0 L1,4 L3,4 L3,1 L5,1 L7,7 L4,8 L4,5 L-1,6 L-2,3 L0,3 Z M7,5 Z " fill="#262626" transform="translate(696,346)"/>
<path d="M0,0 L3,0 L4,5 L7,5 L7,7 L4,8 L4,11 L2,11 L1,6 L2,4 Z " fill="#282828" transform="translate(709,288)"/>
<path d="M0,0 L6,2 L10,3 L12,7 L5,5 Z " fill="#262626" transform="translate(25,114)"/>
<path d="M0,0 L6,0 L5,3 L7,3 L8,8 L3,4 L2,6 L0,6 Z " fill="#2D2D2D" transform="translate(576,98)"/>
<path d="M0,0 L2,0 L4,5 L6,6 L6,8 L8,9 L4,10 L3,6 L0,6 Z " fill="#EFEFEF" transform="translate(741,552)"/>
<path d="M0,0 L2,4 L1,7 L-4,7 L-3,2 L0,2 Z " fill="#E2E3E3" transform="translate(149,445)"/>
<path d="M0,0 L3,0 L3,7 L-1,2 Z M-3,4 L0,5 L0,7 L2,8 L1,10 L-1,10 Z " fill="#2D2D2D" transform="translate(581,166)"/>
<path d="M0,0 L4,3 L2,10 L-1,7 Z " fill="#262626" transform="translate(223,148)"/>
<path d="M0,0 L7,2 L8,4 L4,3 L6,7 L1,5 L-1,1 Z " fill="#282828" transform="translate(288,131)"/>
<path d="M0,0 L2,1 L2,4 L3,1 L5,1 L7,8 L3,7 L3,5 L0,4 Z M2,7 Z " fill="#282727" transform="translate(147,36)"/>
<path d="M0,0 L5,0 L10,5 L10,8 L6,6 L5,3 L0,1 Z " fill="#262726" transform="translate(990,715)"/>
<path d="M0,0 L2,0 L2,2 L7,3 L8,6 L4,4 L4,7 L1,7 Z " fill="#272727" transform="translate(1004,544)"/>
<path d="M0,0 L1,0 L4,11 L7,12 L7,14 L3,12 L0,8 Z " fill="#141314" transform="translate(577,528)"/>
<path d="M0,0 L2,1 L2,3 L5,4 L6,11 L4,11 L0,3 Z " fill="#0F1010" transform="translate(183,500)"/>
<path d="M0,0 L2,1 L-3,8 L-5,8 L-5,6 L-7,5 Z " fill="#E1E0E1" transform="translate(571,452)"/>
<path d="M0,0 L4,1 L2,3 L-1,3 L-1,6 L-4,5 L-7,3 Z " fill="#D2D3D3" transform="translate(411,448)"/>
<path d="M0,0 L6,2 L12,6 L11,8 L2,3 L-2,1 Z " fill="#181819" transform="translate(437,447)"/>
<path d="M0,0 L5,3 L5,1 L8,1 L8,3 L6,3 L7,6 L2,5 L-1,3 Z " fill="#282828" transform="translate(657,425)"/>
<path d="M0,0 L5,1 L6,6 L4,9 L-1,5 L1,4 L3,5 L3,3 Z " fill="#2A2A2A" transform="translate(753,308)"/>
<path d="M0,0 L5,1 L2,2 L2,4 L5,4 L4,6 L-2,4 L-3,1 Z " fill="#262626" transform="translate(183,161)"/>
<path d="M0,0 L3,1 L3,3 L6,3 L5,6 L0,2 Z M-5,2 L2,4 L2,6 L-4,4 Z " fill="#252525" transform="translate(981,151)"/>
<path d="M0,0 L2,0 L4,2 L10,3 L9,6 L1,3 L-2,4 Z " fill="#302F30" transform="translate(879,143)"/>
<path d="M0,0 L2,3 L2,5 L4,5 L4,8 L1,7 L-1,1 Z M-3,2 L-1,2 L-2,5 Z M-2,7 L1,8 L-2,9 Z " fill="#2C2D2D" transform="translate(591,96)"/>
<path d="M0,0 L4,2 L7,4 L7,6 L-2,5 L-3,3 L2,4 L2,2 L0,2 Z " fill="#272626" transform="translate(940,553)"/>
<path d="M0,0 L1,0 L1,5 L6,6 L5,9 L1,7 L2,11 L0,11 Z " fill="#E2E2E2" transform="translate(506,537)"/>
<path d="M0,0 L5,2 L4,6 L3,5 L0,8 L-1,5 Z " fill="#2C2D2C" transform="translate(891,518)"/>
<path d="M0,0 L5,5 L9,13 L7,14 L0,2 Z " fill="#111111" transform="translate(155,453)"/>
<path d="M0,0 L2,1 L-10,9 L-12,8 L-6,3 Z " fill="#131313" transform="translate(691,449)"/>
<path d="M0,0 L7,1 L9,3 L8,6 L5,6 L5,4 L1,3 Z " fill="#F2F2F2" transform="translate(308,450)"/>
<path d="M0,0 L4,1 L2,6 L1,8 L-2,6 Z " fill="#282828" transform="translate(1016,417)"/>
<path d="M0,0 L4,4 L4,6 L1,5 L-1,7 L-5,6 L-4,4 L-2,4 Z " fill="#272727" transform="translate(671,374)"/>
<path d="M0,0 L5,1 L5,9 L2,5 L3,2 L0,2 Z M0,6 L3,7 L0,8 Z " fill="#252626" transform="translate(171,276)"/>
<path d="M0,0 L2,0 L3,3 L1,4 L1,7 L-1,7 L-4,4 L-4,2 Z " fill="#292829" transform="translate(582,253)"/>
<path d="M0,0 L4,1 L6,5 L4,5 L4,7 L1,6 L1,4 L-1,4 L-1,2 L2,2 Z " fill="#292929" transform="translate(421,209)"/>
<path d="M0,0 L2,0 L2,2 L9,2 L9,4 L5,7 L0,1 Z M-1,2 L1,4 L-1,4 Z " fill="#262626" transform="translate(360,208)"/>
<path d="M0,0 L4,1 L3,4 Z M0,3 L3,4 L1,5 L1,10 L0,8 L-4,7 L-3,5 L-1,5 Z " fill="#323232" transform="translate(901,36)"/>
<path d="M0,0 L5,1 L4,5 L1,4 L1,6 L-1,6 L-3,1 Z M-1,2 Z " fill="#262626" transform="translate(963,573)"/>
<path d="M0,0 L1,4 L-3,14 L-4,11 L-1,2 Z " fill="#F4F4F4" transform="translate(911,550)"/>
<path d="M0,0 L2,0 L3,5 L3,9 L-1,8 Z " fill="#1A1A1A" transform="translate(914,546)"/>
<path d="M0,0 L3,1 L0,7 L-2,4 Z M-3,6 L-1,7 L-2,10 Z " fill="#DDDDDD" transform="translate(875,548)"/>
<path d="M0,0 L3,1 L1,6 L4,10 L0,9 L-2,4 Z " fill="#262626" transform="translate(946,529)"/>
<path d="M0,0 L3,1 L3,4 L5,5 L1,5 L2,8 L-1,9 L-3,8 L-2,6 Z " fill="#DFDFDF" transform="translate(894,526)"/>
<path d="M0,0 L4,2 L6,5 L9,6 L7,10 L4,7 Z " fill="#F2F2F2" transform="translate(496,474)"/>
<path d="M0,0 L3,1 L-7,7 L-8,3 L-1,1 Z " fill="#F1F1F1" transform="translate(476,470)"/>
<path d="M0,0 L5,0 L1,3 L-5,7 L-7,9 L-6,5 Z " fill="#0E0E0E" transform="translate(280,472)"/>
<path d="M0,0 L3,4 L5,9 L5,13 L3,13 L0,4 Z " fill="#F4F4F4" transform="translate(842,464)"/>
<path d="M0,0 L6,2 L5,4 L8,5 L8,7 L3,5 L-1,3 Z " fill="#DCDCDC" transform="translate(615,449)"/>
<path d="M0,0 L5,1 L4,7 L-1,4 Z " fill="#272726" transform="translate(990,443)"/>
<path d="M0,0 L4,2 L6,3 L6,5 L-1,4 L-1,2 L-3,1 Z " fill="#282828" transform="translate(463,245)"/>
<path d="M0,0 L7,3 L7,5 L0,6 L0,2 Z " fill="#262626" transform="translate(253,180)"/>
<path d="M0,0 L3,2 L5,9 L0,9 Z " fill="#282828" transform="translate(279,92)"/>
<path d="M0,0 L4,2 L2,8 L4,8 L4,10 L1,9 L1,7 L-1,6 L1,3 Z " fill="#2A2A2A" transform="translate(314,85)"/>
<path d="M0,0 L3,1 L7,5 L9,6 L7,10 L5,9 L1,2 Z " fill="#313131" transform="translate(909,56)"/>
<path d="M0,0 L3,0 L3,2 L5,2 L4,4 L2,3 L2,5 L7,6 L7,8 L1,6 L0,2 Z " fill="#2C2C2C" transform="translate(361,57)"/>
<path d="M0,0 L4,2 L0,3 Z M-4,1 L-1,2 L2,7 L-3,5 Z " fill="#282828" transform="translate(821,29)"/>
<path d="M0,0 L4,1 L4,3 L2,4 L5,7 L5,9 L2,9 L-1,3 Z " fill="#262626" transform="translate(712,9)"/>
<path d="M0,0 L5,1 L5,3 L2,3 L1,5 L-1,5 L-1,3 L-4,4 L-4,2 Z " fill="#262626" transform="translate(863,676)"/>
<path d="M0,0 L4,1 L4,6 L-1,5 L-2,2 Z " fill="#EEEDEE" transform="translate(262,557)"/>
<path d="M0,0 L3,0 L4,4 L2,4 L0,7 L-3,6 Z " fill="#272727" transform="translate(994,506)"/>
<path d="M0,0 L6,1 L5,3 L-11,2 L-11,1 Z " fill="#BABBBB" transform="translate(297,469)"/>
<path d="M0,0 L4,1 L9,7 L8,10 L2,2 Z " fill="#EFEFEF" transform="translate(446,455)"/>
<path d="M0,0 L9,0 L8,3 L6,3 L6,5 L2,4 L2,2 Z " fill="#E1E1E1" transform="translate(698,448)"/>
<path d="M0,0 L2,0 L3,3 L-2,6 L-2,3 L-4,3 L-4,1 Z " fill="#262626" transform="translate(950,444)"/>
<path d="M0,0 L2,0 L4,6 L1,9 L-1,3 Z " fill="#282828" transform="translate(730,375)"/>
<path d="M0,0 L6,0 L8,4 L3,5 Z " fill="#272626" transform="translate(360,366)"/>
<path d="M0,0 L2,1 L4,3 L4,9 L1,8 L1,4 L-1,4 Z " fill="#282828" transform="translate(932,321)"/>
<path d="M0,0 L8,1 L7,5 L0,4 L0,1 Z " fill="#292929" transform="translate(739,320)"/>
<path d="M0,0 L2,0 L3,2 L6,3 L5,8 L1,6 L1,3 Z " fill="#282828" transform="translate(576,242)"/>
<path d="M0,0 L2,1 L2,5 L0,5 L-2,9 L-4,9 L-3,4 L0,4 Z " fill="#272727" transform="translate(280,151)"/>
<path d="M0,0 L3,1 L7,6 L2,7 L0,2 Z " fill="#272727" transform="translate(77,69)"/>
<path d="M0,0 L2,0 L3,3 L5,2 L7,7 L2,6 Z " fill="#272728" transform="translate(789,554)"/>
<path d="M0,0 L4,1 L3,7 L0,11 Z " fill="#262626" transform="translate(769,546)"/>
<path d="M0,0 L6,2 L6,4 L-1,5 L-1,3 L-3,2 Z " fill="#E1E1E2" transform="translate(305,540)"/>
<path d="M0,0 L3,3 L7,11 L5,12 L0,3 Z " fill="#131314" transform="translate(175,486)"/>
<path d="M0,0 L4,1 L9,6 L9,9 L4,4 Z " fill="#171617" transform="translate(728,474)"/>
<path d="M0,0 L2,0 L5,3 L5,5 L2,5 L1,8 L-1,5 Z M0,4 Z " fill="#292929" transform="translate(907,460)"/>
<path d="M0,0 L1,0 L3,11 L0,13 Z " fill="#0C0C0B" transform="translate(390,450)"/>
<path d="M0,0 L4,1 L2,2 L3,8 L-1,7 L0,3 L-2,2 Z M0,2 Z " fill="#272627" transform="translate(458,315)"/>
<path d="M0,0 L4,1 L5,5 L5,7 L0,6 L2,3 L-1,2 Z " fill="#222222" transform="translate(1014,292)"/>
<path d="M0,0 L6,3 L8,3 L7,6 L5,5 L4,8 L3,4 L1,4 Z " fill="#282828" transform="translate(419,214)"/>
<path d="M0,0 L3,2 L5,8 L0,6 Z " fill="#282829" transform="translate(403,127)"/>
<path d="M0,0 L3,3 L7,5 L4,5 L4,8 L1,8 L0,4 Z " fill="#242425" transform="translate(674,122)"/>
<path d="M0,0 L3,0 L6,5 L6,8 L2,4 L-1,2 Z M7,4 L9,6 L7,6 Z " fill="#262626" transform="translate(893,101)"/>
<path d="M0,0 L5,0 L7,5 L-2,2 Z " fill="#323132" transform="translate(800,62)"/>
<path d="M0,0 L5,0 L5,3 L5,7 L2,6 L3,2 L-1,3 Z " fill="#262626" transform="translate(37,60)"/>
<path d="M0,0 L2,0 L4,5 L1,7 L-2,4 Z " fill="#262626" transform="translate(236,29)"/>
<path d="M0,0 L2,0 L9,9 L6,9 L0,2 Z " fill="#121213" transform="translate(672,550)"/>
<path d="M0,0 L4,4 L7,10 L5,11 L0,3 Z " fill="#131213" transform="translate(146,499)"/>
<path d="M0,0 L4,4 L4,6 L0,9 Z " fill="#262626" transform="translate(823,482)"/>
<path d="M0,0 L2,2 L3,8 L1,12 L0,5 Z " fill="#282828" transform="translate(841,466)"/>
<path d="M0,0 L3,1 L2,6 L-1,7 L-4,5 L-3,3 L0,4 Z " fill="#2A2A2A" transform="translate(677,273)"/>
<path d="M0,0 L3,1 L2,5 L-2,6 L-4,5 L-3,3 L0,4 Z " fill="#262526" transform="translate(168,159)"/>
<path d="M0,0 L2,0 L2,2 L6,3 L4,7 L2,9 Z " fill="#2C2C2C" transform="translate(398,84)"/>
<path d="M0,0 L2,0 L3,5 L6,8 L3,8 L0,8 Z " fill="#282828" transform="translate(248,45)"/>
<path d="M0,0 L3,1 L1,6 L-3,4 L-3,1 Z " fill="#262626" transform="translate(94,31)"/>
<path d="M0,0 L3,1 L1,5 L5,6 L2,7 L-2,4 L-2,2 L0,2 Z " fill="#282828" transform="translate(73,24)"/>
<path d="M0,0 L4,2 L4,4 L2,4 L4,8 L0,6 L-1,3 Z " fill="#1A1A1A" transform="translate(60,728)"/>
<path d="M0,0 L3,0 L5,4 L3,6 L3,4 L-2,3 L-2,1 Z " fill="#2E2E2F" transform="translate(894,510)"/>
<path d="M0,0 L2,0 L3,4 L3,12 L2,12 L0,5 Z " fill="#C0C0C0" transform="translate(342,488)"/>
<path d="M0,0 L3,0 L3,2 L5,2 L4,4 L2,3 L1,6 L-3,4 L0,1 Z " fill="#272728" transform="translate(582,473)"/>
<path d="M0,0 L4,0 L8,2 L6,4 L0,3 Z " fill="#2A2A2A" transform="translate(1011,454)"/>
<path d="M0,0 L5,0 L5,5 L3,4 L3,2 L-3,4 Z " fill="#F0F0F1" transform="translate(574,451)"/>
<path d="M0,0 L4,2 L3,6 L-1,8 L-1,6 L1,6 Z " fill="#282828" transform="translate(985,406)"/>
<path d="M0,0 L4,2 L3,3 L6,6 L1,5 L-2,2 Z " fill="#262626" transform="translate(664,350)"/>
<path d="M0,0 L6,0 L8,4 L3,4 L3,2 L0,1 Z " fill="#272727" transform="translate(569,299)"/>
<path d="M0,0 L5,0 L6,4 L2,5 L0,4 Z " fill="#262526" transform="translate(304,287)"/>
<path d="M0,0 L2,3 L0,7 L2,8 L-1,8 L-4,3 L-3,1 L-1,2 Z " fill="#292929" transform="translate(599,276)"/>
<path d="M0,0 L5,2 L5,4 L1,3 L0,6 L-2,6 L-1,1 Z " fill="#292828" transform="translate(743,262)"/>
<path d="M0,0 L4,0 L4,5 L2,5 L2,3 L-3,3 L-3,1 Z " fill="#262525" transform="translate(183,183)"/>
<path d="M0,0 L6,0 L6,2 L3,2 L4,7 L1,6 Z " fill="#282827" transform="translate(200,154)"/>
<path d="M0,0 L5,2 L3,5 L3,3 L1,3 L0,6 L-3,2 L0,2 Z " fill="#282828" transform="translate(289,138)"/>
<path d="M0,0 L4,1 L4,3 L6,3 L5,5 L0,6 L-1,1 Z " fill="#282828" transform="translate(341,100)"/>
<path d="M0,0 L4,0 L3,5 L-1,4 Z " fill="#272727" transform="translate(281,75)"/>
<path d="M0,0 L2,0 L5,6 L0,7 L-1,5 Z " fill="#282828" transform="translate(976,34)"/>
<path d="M0,0 L6,2 L3,6 L-1,5 L-1,3 L1,3 Z " fill="#292A29" transform="translate(988,1)"/>
<path d="M0,0 L2,3 L3,9 L-1,9 L-1,5 Z " fill="#29292A" transform="translate(244,544)"/>
<path d="M0,0 L1,3 L4,4 L3,7 L0,7 L0,5 L-2,4 Z " fill="#262526" transform="translate(977,491)"/>
<path d="M0,0 L2,0 L0,5 L-3,10 L-4,7 Z " fill="#F2F3F3" transform="translate(697,478)"/>
<path d="M0,0 L5,5 L4,8 L0,7 L0,4 Z " fill="#2A292A" transform="translate(554,467)"/>
<path d="M0,0 L4,2 L2,6 L-3,1 Z " fill="#DDDDDE" transform="translate(426,471)"/>
<path d="M0,0 L7,0 L3,3 L3,5 L-1,3 Z " fill="#EEEEEE" transform="translate(735,458)"/>
<path d="M0,0 L3,0 L2,3 L0,3 L-1,6 L-4,5 L-2,1 Z " fill="#282828" transform="translate(769,364)"/>
<path d="M0,0 L3,3 L3,5 L-1,5 L-5,4 L-4,2 Z " fill="#212020" transform="translate(815,357)"/>
<path d="M0,0 L2,0 L2,5 L-1,5 L-1,3 L-4,3 L-4,1 Z " fill="#292929" transform="translate(693,304)"/>
<path d="M0,0 L3,0 L3,4 L-1,6 L-3,3 L0,3 Z " fill="#282828" transform="translate(560,264)"/>
<path d="M0,0 L1,2 L6,3 L2,5 L-2,3 L-2,1 Z " fill="#2F2F2F" transform="translate(932,236)"/>
<path d="M0,0 L4,2 L6,3 L7,8 L5,7 L5,5 L1,3 Z " fill="#2F2F2F" transform="translate(915,235)"/>
<path d="M0,0 L6,0 L9,2 L9,4 L0,1 Z M5,4 L7,4 L6,6 Z " fill="#222222" transform="translate(800,218)"/>
<path d="M0,0 L4,1 L5,4 L3,4 L3,6 L1,6 Z " fill="#212122" transform="translate(707,212)"/>
<path d="M0,0 L5,1 L5,3 L3,4 L1,7 L0,4 L-2,2 L0,2 Z " fill="#262626" transform="translate(273,195)"/>
<path d="M0,0 L5,5 L3,6 L2,8 L0,7 Z " fill="#272626" transform="translate(280,185)"/>
<path d="M0,0 L4,1 L3,4 L2,4 L-2,5 L-3,3 L-1,3 Z " fill="#313131" transform="translate(1002,145)"/>
<path d="M0,0 L5,3 L5,7 L3,6 L-2,1 Z " fill="#302F30" transform="translate(781,141)"/>
<path d="M0,0 L3,1 L1,3 Z M-1,3 L1,4 L1,8 L-4,6 Z " fill="#303030" transform="translate(855,124)"/>
<path d="M0,0 L3,0 L5,3 L8,3 L7,7 L1,3 Z " fill="#313232" transform="translate(817,115)"/>
<path d="M0,0 L5,2 L6,5 L1,4 L-1,5 Z " fill="#2D2D2D" transform="translate(541,90)"/>
<path d="M0,0 Z M-4,1 L0,1 L0,4 L3,5 L1,6 L-3,5 Z " fill="#252525" transform="translate(750,36)"/>
<path d="M0,0 L2,1 L4,6 L3,9 L0,6 L-1,1 Z " fill="#292829" transform="translate(156,17)"/>
<path d="M0,0 L5,1 L6,5 L8,6 L5,6 L0,2 Z " fill="#282828" transform="translate(948,2)"/>
<path d="M0,0 L5,1 L5,4 L2,4 L2,6 L0,6 Z " fill="#282728" transform="translate(864,542)"/>
<path d="M0,0 L4,2 L7,3 L4,7 L0,2 Z " fill="#171617" transform="translate(149,510)"/>
<path d="M0,0 L1,2 L-2,9 L-3,5 L-2,1 Z " fill="#D6D6D6" transform="translate(240,483)"/>
<path d="M0,0 L4,2 L10,4 L8,6 L4,5 Z " fill="#121212" transform="translate(562,477)"/>
<path d="M0,0 L2,0 L0,4 L-4,8 L-3,3 Z " fill="#DFDFDF" transform="translate(275,473)"/>
<path d="M0,0 L4,1 L4,3 L-9,2 L-9,1 Z " fill="#C4C4C5" transform="translate(602,469)"/>
<path d="M0,0 L6,0 L6,6 L4,2 L0,2 Z " fill="#E1E2E2" transform="translate(381,451)"/>
<path d="M0,0 L3,4 L3,5 L-2,5 L-5,1 L0,3 Z " fill="#E2E1E2" transform="translate(146,440)"/>
<path d="M0,0 L8,2 L9,5 L0,2 Z " fill="#2B2A2A" transform="translate(1012,436)"/>
<path d="M0,0 L3,3 L2,6 L-4,5 L-4,3 L-1,3 Z " fill="#E0E0E0" transform="translate(128,410)"/>
<path d="M0,0 L2,0 L2,2 L6,3 L6,5 L-1,5 Z " fill="#272727" transform="translate(563,398)"/>
<path d="M0,0 L5,1 L2,2 L3,5 L0,6 Z " fill="#2B2B2B" transform="translate(938,339)"/>
<path d="M0,0 L6,0 L7,3 L5,4 L3,6 L3,2 L0,1 Z " fill="#29292A" transform="translate(668,331)"/>
<path d="M0,0 L3,1 L3,5 L0,5 L-2,2 L0,2 Z M-1,5 L0,7 L-2,6 Z " fill="#282828" transform="translate(683,295)"/>
<path d="M0,0 L6,0 L7,2 L1,3 L-2,1 Z " fill="#272827" transform="translate(499,282)"/>
<path d="M0,0 L0,3 L-2,6 L-7,4 L-6,2 L-1,1 Z " fill="#272727" transform="translate(764,268)"/>
<path d="M0,0 L5,2 L8,4 L8,6 L5,6 L5,4 L1,2 Z M4,6 Z " fill="#2D2E2E" transform="translate(773,196)"/>
<path d="M0,0 L2,3 L3,8 L0,7 L-2,2 Z " fill="#262526" transform="translate(438,171)"/>
<path d="M0,0 L6,0 L6,4 L1,3 Z " fill="#272627" transform="translate(258,146)"/>
<path d="M0,0 L0,3 L-6,4 L-8,3 L-8,1 L-1,1 Z " fill="#292929" transform="translate(273,112)"/>
<path d="M0,0 L5,2 L6,4 L4,4 L4,6 L1,5 Z " fill="#323132" transform="translate(1013,95)"/>
<path d="M0,0 L2,0 L2,2 L7,3 L3,5 L1,4 L0,6 Z " fill="#272727" transform="translate(95,77)"/>
<path d="M0,0 L5,3 L5,6 L0,4 Z " fill="#313031" transform="translate(770,70)"/>
<path d="M0,0 L4,1 L1,2 L3,7 L-3,2 Z " fill="#222121" transform="translate(432,45)"/>
<path d="M0,0 L2,1 L2,4 L6,5 L1,6 L-1,1 Z " fill="#2D2D2D" transform="translate(373,29)"/>
<path d="M0,0 L0,3 L-3,4 L-3,6 L-5,6 L-6,2 Z " fill="#262626" transform="translate(249,20)"/>
<path d="M0,0 L4,1 L3,4 L-1,6 Z " fill="#191919" transform="translate(233,918)"/>
<path d="M0,0 L5,5 L4,9 L2,9 Z " fill="#1A1A1A" transform="translate(337,895)"/>
<path d="M0,0 L8,1 L9,4 L0,2 Z " fill="#282828" transform="translate(822,642)"/>
<path d="M0,0 L3,1 L0,5 L-4,5 L-2,1 L-1,2 Z " fill="#343535" transform="translate(909,568)"/>
<path d="M0,0 L4,1 L7,1 L7,5 L3,5 L2,2 Z " fill="#292829" transform="translate(1009,532)"/>
<path d="M0,0 L2,1 L-2,5 L-7,7 L-2,2 Z " fill="#D6D7D8" transform="translate(563,504)"/>
<path d="M0,0 L3,1 L-4,6 L-5,3 Z " fill="#DADADB" transform="translate(703,473)"/>
<path d="M0,0 L5,1 L8,4 L6,6 L6,4 L2,2 Z " fill="#DBDBDC" transform="translate(302,472)"/>
<path d="M0,0 L7,0 L3,2 L2,5 L-1,3 Z " fill="#E0DFE0" transform="translate(714,448)"/>
<path d="M0,0 L4,2 L4,5 L2,5 L2,3 L-1,3 Z M-1,4 L2,6 L-1,6 Z " fill="#292A29" transform="translate(1001,418)"/>
<path d="M0,0 L6,0 L8,4 L0,2 Z " fill="#F2F3F2" transform="translate(119,404)"/>
<path d="M0,0 L3,1 L0,6 L-3,5 L-2,3 L0,3 Z " fill="#282727" transform="translate(895,361)"/>
<path d="M0,0 L6,2 L8,5 L4,4 L0,2 Z " fill="#2E2E2E" transform="translate(1001,290)"/>
<path d="M0,0 L2,0 L3,4 L-1,2 Z M-1,4 L1,4 L0,8 Z " fill="#282828" transform="translate(593,287)"/>
<path d="M0,0 L2,1 L1,5 L-3,4 L-3,1 Z " fill="#272627" transform="translate(734,280)"/>
<path d="M0,0 L4,2 L5,8 L3,8 L0,3 Z " fill="#262525" transform="translate(272,211)"/>
<path d="M0,0 L3,0 L5,4 L4,7 L2,7 L2,2 L0,2 Z " fill="#222222" transform="translate(745,196)"/>
<path d="M0,0 L3,1 L4,5 L-1,5 L-2,3 L0,2 Z " fill="#2E2E2E" transform="translate(939,193)"/>
<path d="M0,0 L2,0 L2,2 L4,2 L5,6 L1,4 L-1,4 Z " fill="#2F2F2F" transform="translate(858,181)"/>
<path d="M0,0 L3,0 L3,4 L-3,5 L-3,2 Z " fill="#252525" transform="translate(940,165)"/>
<path d="M0,0 L4,1 L8,4 L8,6 L6,6 L6,4 L1,2 Z " fill="#2F2F2F" transform="translate(723,163)"/>
<path d="M0,0 L7,2 L7,5 L0,2 Z " fill="#2A2A2A" transform="translate(280,162)"/>
<path d="M0,0 L5,2 L7,4 L6,7 L6,5 L3,5 Z " fill="#2D2D2D" transform="translate(652,157)"/>
<path d="M0,0 L6,1 L5,6 L3,5 L4,3 L0,2 Z " fill="#292929" transform="translate(294,122)"/>
<path d="M0,0 L3,1 L3,8 L-1,4 L1,3 Z " fill="#282828" transform="translate(393,115)"/>
<path d="M0,0 L3,1 L2,5 L-2,4 L-3,2 L-1,2 Z " fill="#2A2A2A" transform="translate(222,117)"/>
<path d="M0,0 Z M-3,1 L2,3 L1,7 L-1,7 Z " fill="#262625" transform="translate(9,99)"/>
<path d="M0,0 L5,0 L5,2 L8,2 L7,4 L2,3 L-1,1 Z " fill="#282727" transform="translate(203,89)"/>
<path d="M0,0 L4,2 L2,6 L-1,6 L-1,4 L1,3 Z " fill="#272727" transform="translate(200,81)"/>
<path d="M0,0 L5,1 L9,5 L7,6 L7,4 L3,3 Z " fill="#272626" transform="translate(65,82)"/>
<path d="M0,0 L5,2 L7,5 L3,6 Z " fill="#2D2D2D" transform="translate(449,67)"/>
<path d="M0,0 L7,3 L6,5 L2,4 L-1,1 Z " fill="#252525" transform="translate(768,62)"/>
<path d="M0,0 L2,1 L0,5 L-3,6 L-2,2 Z " fill="#272827" transform="translate(399,60)"/>
<path d="M0,0 L2,0 L4,2 L6,2 L6,7 L0,2 Z " fill="#292929" transform="translate(124,56)"/>
<path d="M0,0 L6,0 L5,6 L4,3 L1,3 Z " fill="#262626" transform="translate(69,0)"/>
</svg>
